<svg width="6241" height="1998" viewBox="0 0 6241 1998" fill="none" xmlns="http://www.w3.org/2000/svg">
<path d="M2591.69 1091.5H2712.54C2709.31 1134.28 2697.45 1172.21 2676.94 1205.32C2656.43 1238.13 2627.87 1263.91 2591.25 1282.66C2554.62 1301.41 2510.24 1310.79 2458.09 1310.79C2417.96 1310.79 2381.77 1303.76 2349.55 1289.7C2317.61 1275.34 2290.22 1254.98 2267.37 1228.61C2244.81 1201.95 2227.53 1170.02 2215.51 1132.81C2203.5 1095.31 2197.5 1053.27 2197.5 1006.69V957.908C2197.5 911.326 2203.65 869.285 2215.95 831.785C2228.26 794.285 2245.84 762.352 2268.69 735.984C2291.83 709.324 2319.52 688.816 2351.74 674.461C2384.26 660.105 2420.59 652.928 2460.73 652.928C2512.88 652.928 2556.97 662.596 2593 681.932C2629.04 700.975 2657.02 727.195 2676.94 760.594C2696.86 793.992 2708.87 832.371 2712.97 875.73H2592.12C2589.78 848.777 2583.92 825.926 2574.55 807.176C2565.46 788.426 2551.7 774.217 2533.24 764.549C2515.07 754.588 2490.9 749.607 2460.73 749.607C2437.29 749.607 2416.64 754.002 2398.77 762.791C2381.19 771.58 2366.54 784.764 2354.82 802.342C2343.1 819.627 2334.31 841.307 2328.45 867.381C2322.59 893.162 2319.66 923.045 2319.66 957.029V1006.69C2319.66 1039.21 2322.3 1068.36 2327.57 1094.14C2332.85 1119.92 2341.05 1141.75 2352.18 1159.62C2363.32 1177.49 2377.67 1191.11 2395.25 1200.49C2412.83 1209.86 2433.78 1214.55 2458.09 1214.55C2487.68 1214.55 2511.71 1209.86 2530.16 1200.49C2548.91 1191.11 2563.12 1177.34 2572.79 1159.18C2582.75 1141.01 2589.05 1118.46 2591.69 1091.5ZM2922.37 923.631V1302H2806.35V826.512H2916.21L2922.37 923.631ZM3066.95 823.436L3065.19 931.541C3058.74 930.369 3051.42 929.49 3043.21 928.904C3035.3 928.318 3027.83 928.025 3020.8 928.025C3002.93 928.025 2987.26 930.516 2973.78 935.496C2960.3 940.184 2949.03 947.068 2939.94 956.15C2931.15 965.232 2924.42 976.365 2919.73 989.549C2915.04 1002.44 2912.4 1017.09 2911.82 1033.49L2886.77 1030.42C2886.77 1000.24 2889.85 972.264 2896 946.482C2902.15 920.701 2911.09 898.143 2922.8 878.807C2934.52 859.471 2949.17 844.529 2966.75 833.982C2984.62 823.143 3005.13 817.723 3028.27 817.723C3034.72 817.723 3041.6 818.309 3048.93 819.48C3056.54 820.359 3062.55 821.678 3066.95 823.436ZM3286.88 1249.27L3414.32 826.512H3538.69L3347.97 1374.07C3343.57 1385.79 3337.86 1398.53 3330.83 1412.3C3324.09 1426.07 3315.01 1439.11 3303.58 1451.41C3292.16 1464.01 3277.8 1474.27 3260.52 1482.18C3243.52 1490.09 3222.87 1494.04 3198.55 1494.04C3188.01 1494.04 3178.63 1493.31 3170.43 1491.84C3162.22 1490.38 3153.58 1488.47 3144.5 1486.13V1399.12C3147.43 1399.41 3150.8 1399.56 3154.61 1399.56C3158.71 1399.85 3162.22 1400 3165.15 1400C3182.15 1400 3196.21 1397.95 3207.34 1393.85C3218.47 1390.04 3227.41 1383.74 3234.15 1374.95C3241.18 1366.45 3247.04 1355.32 3251.73 1341.55L3286.88 1249.27ZM3224.04 826.512L3331.71 1176.76L3350.6 1299.36L3270.62 1313.87L3098.8 826.512H3224.04ZM3719.96 917.918V1484.81H3603.5V826.512H3711.17L3719.96 917.918ZM4025.38 1059.42V1068.65C4025.38 1103.22 4021.27 1135.3 4013.07 1164.89C4005.16 1194.19 3993.44 1219.82 3977.91 1241.79C3962.39 1263.47 3943.05 1280.47 3919.91 1292.77C3897.05 1304.78 3870.69 1310.79 3840.8 1310.79C3811.51 1310.79 3786.02 1305.22 3764.34 1294.09C3742.66 1282.66 3724.35 1266.55 3709.41 1245.75C3694.47 1224.95 3682.46 1200.78 3673.37 1173.24C3664.58 1145.41 3657.99 1115.09 3653.6 1082.27V1052.83C3657.99 1017.97 3664.58 986.326 3673.37 957.908C3682.46 929.197 3694.47 904.441 3709.41 883.641C3724.35 862.547 3742.51 846.287 3763.9 834.861C3785.58 823.436 3810.92 817.723 3839.93 817.723C3870.1 817.723 3896.62 823.436 3919.47 834.861C3942.61 846.287 3962.09 862.693 3977.91 884.08C3993.73 905.467 4005.6 930.955 4013.51 960.545C4021.42 990.135 4025.38 1023.09 4025.38 1059.42ZM3908.92 1068.65V1059.42C3908.92 1038.33 3907.02 1018.85 3903.21 1000.97C3899.4 982.811 3893.54 966.99 3885.63 953.514C3877.72 939.744 3867.46 929.051 3854.87 921.434C3842.27 913.816 3827.04 910.008 3809.16 910.008C3791.29 910.008 3775.91 912.938 3763.02 918.797C3750.13 924.656 3739.58 933.006 3731.38 943.846C3723.18 954.686 3716.73 967.576 3712.04 982.518C3707.65 997.166 3704.72 1013.43 3703.26 1031.3V1104.25C3705.89 1125.93 3711.02 1145.41 3718.64 1162.69C3726.25 1179.98 3737.39 1193.75 3752.04 1204C3766.98 1214.26 3786.31 1219.38 3810.04 1219.38C3827.91 1219.38 3843.15 1215.43 3855.75 1207.52C3868.34 1199.61 3878.6 1188.77 3886.51 1175C3894.42 1160.94 3900.13 1144.82 3903.65 1126.66C3907.16 1108.49 3908.92 1089.16 3908.92 1068.65ZM4344.19 826.512V910.008H4071.73V826.512H4344.19ZM4144.68 709.617H4261.13V1164.89C4261.13 1178.95 4263.04 1189.79 4266.85 1197.41C4270.65 1205.03 4276.37 1210.15 4283.98 1212.79C4291.6 1215.43 4300.68 1216.75 4311.23 1216.75C4318.85 1216.75 4325.88 1216.31 4332.32 1215.43C4338.77 1214.55 4344.19 1213.67 4348.58 1212.79L4349.02 1299.8C4339.36 1303.03 4328.37 1305.66 4316.06 1307.71C4304.05 1309.76 4290.43 1310.79 4275.2 1310.79C4249.12 1310.79 4226.27 1306.39 4206.64 1297.61C4187.01 1288.52 4171.78 1274.02 4160.94 1254.1C4150.1 1233.88 4144.68 1207.22 4144.68 1174.12V709.617ZM4398.45 1069.09V1059.86C4398.45 1025 4403.43 992.918 4413.39 963.621C4423.36 934.031 4437.86 908.396 4456.9 886.717C4475.94 865.037 4499.23 848.191 4526.77 836.18C4554.31 823.875 4585.66 817.723 4620.82 817.723C4656.56 817.723 4688.2 823.875 4715.74 836.18C4743.57 848.191 4767.01 865.037 4786.05 886.717C4805.09 908.396 4819.6 934.031 4829.56 963.621C4839.52 992.918 4844.5 1025 4844.5 1059.86V1069.09C4844.5 1103.66 4839.52 1135.74 4829.56 1165.33C4819.6 1194.63 4805.09 1220.26 4786.05 1242.23C4767.01 1263.91 4743.72 1280.76 4716.18 1292.77C4688.64 1304.78 4657.14 1310.79 4621.7 1310.79C4586.54 1310.79 4555.04 1304.78 4527.21 1292.77C4499.38 1280.76 4475.94 1263.91 4456.9 1242.23C4437.86 1220.26 4423.36 1194.63 4413.39 1165.33C4403.43 1135.74 4398.45 1103.66 4398.45 1069.09ZM4514.47 1059.86V1069.09C4514.47 1089.89 4516.52 1109.37 4520.62 1127.54C4524.72 1145.7 4531.02 1161.67 4539.52 1175.44C4548.01 1189.21 4559 1200.05 4572.48 1207.96C4586.25 1215.57 4602.65 1219.38 4621.7 1219.38C4640.45 1219.38 4656.56 1215.57 4670.04 1207.96C4683.51 1200.05 4694.5 1189.21 4702.99 1175.44C4711.78 1161.67 4718.23 1145.7 4722.33 1127.54C4726.43 1109.37 4728.48 1089.89 4728.48 1069.09V1059.86C4728.48 1039.35 4726.43 1020.16 4722.33 1002.29C4718.23 984.129 4711.78 968.162 4702.99 954.393C4694.5 940.33 4683.37 929.344 4669.6 921.434C4656.12 913.23 4639.86 909.129 4620.82 909.129C4602.07 909.129 4585.95 913.23 4572.48 921.434C4559 929.344 4548.01 940.33 4539.52 954.393C4531.02 968.162 4524.72 984.129 4520.62 1002.29C4516.52 1020.16 4514.47 1039.35 4514.47 1059.86ZM5192.76 1068.65H5027.96V973.729H5192.76C5219.71 973.729 5241.54 969.334 5258.23 960.545C5275.23 951.463 5287.68 939.158 5295.59 923.631C5303.5 907.811 5307.45 889.793 5307.45 869.578C5307.45 849.949 5303.5 831.639 5295.59 814.646C5287.68 797.654 5275.23 783.885 5258.23 773.338C5241.54 762.791 5219.71 757.518 5192.76 757.518H5067.51V1302H4946.66V662.156H5192.76C5242.56 662.156 5285.04 671.092 5320.2 688.963C5355.65 706.541 5382.6 731.004 5401.06 762.352C5419.81 793.406 5429.18 828.855 5429.18 868.699C5429.18 910.008 5419.81 945.604 5401.06 975.486C5382.6 1005.37 5355.65 1028.37 5320.2 1044.48C5285.04 1060.59 5242.56 1068.65 5192.76 1068.65ZM5780.96 1200.93V981.639C5780.96 965.525 5778.17 951.609 5772.61 939.891C5767.04 928.172 5758.54 919.09 5747.12 912.645C5735.69 906.199 5721.19 902.977 5703.61 902.977C5688.08 902.977 5674.46 905.613 5662.74 910.887C5651.32 916.16 5642.53 923.631 5636.38 933.299C5630.22 942.674 5627.15 953.514 5627.15 965.818H5510.69C5510.69 946.189 5515.38 927.586 5524.75 910.008C5534.13 892.137 5547.46 876.316 5564.74 862.547C5582.32 848.484 5603.27 837.498 5627.59 829.588C5652.2 821.678 5679.73 817.723 5710.2 817.723C5746.24 817.723 5778.32 823.875 5806.44 836.18C5834.86 848.191 5857.13 866.355 5873.24 890.672C5889.65 914.988 5897.85 945.604 5897.85 982.518V1189.94C5897.85 1213.67 5899.31 1234.03 5902.24 1251.02C5905.47 1267.72 5910.15 1282.22 5916.31 1294.53V1302H5798.09C5792.53 1289.99 5788.28 1274.75 5785.35 1256.3C5782.42 1237.55 5780.96 1219.09 5780.96 1200.93ZM5797.21 1012.4L5798.09 1081.39H5724.71C5706.54 1081.39 5690.57 1083.3 5676.8 1087.11C5663.04 1090.62 5651.76 1095.9 5642.97 1102.93C5634.18 1109.67 5627.59 1117.87 5623.19 1127.54C5618.8 1136.91 5616.6 1147.61 5616.6 1159.62C5616.6 1171.34 5619.24 1181.88 5624.51 1191.26C5630.08 1200.63 5637.99 1208.1 5648.24 1213.67C5658.79 1218.94 5671.09 1221.58 5685.15 1221.58C5705.66 1221.58 5723.53 1217.48 5738.77 1209.28C5754 1200.78 5765.87 1190.53 5774.36 1178.51C5782.86 1166.5 5787.4 1155.08 5787.99 1144.24L5821.38 1194.33C5817.28 1206.35 5811.13 1219.09 5802.93 1232.57C5794.72 1246.04 5784.18 1258.64 5771.29 1270.36C5758.4 1282.08 5742.87 1291.75 5724.71 1299.36C5706.54 1306.98 5685.45 1310.79 5661.42 1310.79C5630.66 1310.79 5603.12 1304.64 5578.81 1292.33C5554.49 1280.03 5535.3 1263.18 5521.24 1241.79C5507.18 1220.41 5500.14 1196.09 5500.14 1168.85C5500.14 1143.65 5504.83 1121.38 5514.21 1102.05C5523.58 1082.71 5537.5 1066.45 5555.96 1053.27C5574.41 1039.79 5597.26 1029.69 5624.51 1022.95C5652.05 1015.92 5683.54 1012.4 5718.99 1012.4H5797.21ZM6134.49 627V1302H6018.03V627H6134.49Z" fill="white"/>
<circle cx="993.844" cy="1003.84" r="422.844" fill="#BB0163"/>
<rect x="823.918" y="1003.84" width="241.06" height="241.06" rx="35" transform="rotate(-45 823.918 1003.84)" fill="white"/>
<circle cx="454.789" cy="430.773" r="142.488" transform="rotate(-75 454.789 430.773)" fill="#BB0163"/>
<path d="M238.672 1231.55C181.463 1095.21 144.383 743.811 453.732 428.939" stroke="#BB0163" stroke-width="110" stroke-linecap="round"/>
<circle cx="1532.78" cy="1576.75" r="142.488" transform="rotate(-75 1532.78 1576.75)" fill="#BB0163"/>
<path d="M1530.96 1577.81C1648.67 1488.34 1856.48 1202.56 1746.02 775.195" stroke="#BB0163" stroke-width="110" stroke-linecap="round"/>
<circle cx="417.899" cy="1542" r="142.488" transform="rotate(-75 417.899 1542)" fill="#BB0163"/>
<path d="M1220.51 1757.06C1084.17 1814.27 732.771 1851.35 417.899 1542" stroke="#BB0163" stroke-width="110" stroke-linecap="round"/>
<circle cx="1566.84" cy="464.803" r="142.488" transform="rotate(-75 1566.84 464.803)" fill="#BB0163"/>
<path d="M1566.85 464.798C1477.38 347.083 1191.6 139.27 764.24 249.738" stroke="#BB0163" stroke-width="110" stroke-linecap="round"/>
</svg>
