<svg width="1635" height="1675" viewBox="0 0 1635 1675" fill="none" xmlns="http://www.w3.org/2000/svg">
<path d="M86.7188 157.793C86.7188 155.254 86.3281 152.975 85.5469 150.957C84.8307 148.874 83.4635 146.986 81.4453 145.293C79.4271 143.535 76.5951 141.81 72.9492 140.117C69.3034 138.424 64.5833 136.667 58.7891 134.844C52.3438 132.76 46.224 130.417 40.4297 127.812C34.7005 125.208 29.6224 122.181 25.1953 118.73C20.8333 115.215 17.3828 111.146 14.8438 106.523C12.3698 101.901 11.1328 96.5299 11.1328 90.4102C11.1328 84.4857 12.4349 79.1146 15.0391 74.2969C17.6432 69.4141 21.2891 65.2474 25.9766 61.7969C30.6641 58.2812 36.1979 55.5794 42.5781 53.6914C49.0234 51.8034 56.0872 50.8594 63.7695 50.8594C74.2513 50.8594 83.3984 52.7474 91.2109 56.5234C99.0234 60.2995 105.078 65.4753 109.375 72.0508C113.737 78.6263 115.918 86.1458 115.918 94.6094H86.8164C86.8164 90.4427 85.9375 86.7969 84.1797 83.6719C82.487 80.4818 79.8828 77.9753 76.3672 76.1523C72.9167 74.3294 68.5547 73.418 63.2812 73.418C58.2031 73.418 53.9714 74.1992 50.5859 75.7617C47.2005 77.2591 44.6615 79.3099 42.9688 81.9141C41.276 84.4531 40.4297 87.3177 40.4297 90.5078C40.4297 92.9167 41.0156 95.0977 42.1875 97.0508C43.4245 99.0039 45.2474 100.827 47.6562 102.52C50.0651 104.212 53.0273 105.807 56.543 107.305C60.0586 108.802 64.1276 110.267 68.75 111.699C76.4974 114.043 83.3008 116.68 89.1602 119.609C95.0846 122.539 100.033 125.827 104.004 129.473C107.975 133.118 110.97 137.253 112.988 141.875C115.007 146.497 116.016 151.738 116.016 157.598C116.016 163.783 114.811 169.316 112.402 174.199C109.993 179.082 106.51 183.216 101.953 186.602C97.3958 189.987 91.9596 192.559 85.6445 194.316C79.3294 196.074 72.2656 196.953 64.4531 196.953C57.4219 196.953 50.4883 196.042 43.6523 194.219C36.8164 192.331 30.599 189.499 25 185.723C19.4661 181.947 15.0391 177.129 11.7188 171.27C8.39844 165.41 6.73828 158.477 6.73828 150.469H36.1328C36.1328 154.896 36.8164 158.639 38.1836 161.699C39.5508 164.759 41.4714 167.233 43.9453 169.121C46.4844 171.009 49.4792 172.376 52.9297 173.223C56.4453 174.069 60.2865 174.492 64.4531 174.492C69.5312 174.492 73.6979 173.776 76.9531 172.344C80.2734 170.911 82.7148 168.926 84.2773 166.387C85.9049 163.848 86.7188 160.983 86.7188 157.793ZM165.867 89.3359V195H137.645V89.3359H165.867ZM135.887 61.7969C135.887 57.6953 137.319 54.3099 140.184 51.6406C143.048 48.9714 146.889 47.6367 151.707 47.6367C156.46 47.6367 160.268 48.9714 163.133 51.6406C166.062 54.3099 167.527 57.6953 167.527 61.7969C167.527 65.8984 166.062 69.2839 163.133 71.9531C160.268 74.6224 156.46 75.957 151.707 75.957C146.889 75.957 143.048 74.6224 140.184 71.9531C137.319 69.2839 135.887 65.8984 135.887 61.7969ZM219.234 111.211V195H191.012V89.3359H217.477L219.234 111.211ZM215.328 138.457H207.516C207.516 131.1 208.395 124.329 210.152 118.145C211.975 111.895 214.612 106.491 218.062 101.934C221.578 97.3112 225.908 93.7305 231.051 91.1914C236.194 88.6523 242.151 87.3828 248.922 87.3828C253.609 87.3828 257.906 88.099 261.812 89.5312C265.719 90.8984 269.072 93.0794 271.871 96.0742C274.736 99.0039 276.949 102.845 278.512 107.598C280.074 112.285 280.855 117.917 280.855 124.492V195H252.73V127.617C252.73 122.799 252.079 119.089 250.777 116.484C249.475 113.88 247.62 112.057 245.211 111.016C242.867 109.974 240.035 109.453 236.715 109.453C233.069 109.453 229.879 110.202 227.145 111.699C224.475 113.197 222.262 115.28 220.504 117.949C218.746 120.553 217.444 123.613 216.598 127.129C215.751 130.645 215.328 134.421 215.328 138.457ZM278.219 135.234L268.16 136.504C268.16 129.603 269.007 123.19 270.699 117.266C272.457 111.341 275.029 106.133 278.414 101.641C281.865 97.1484 286.129 93.6654 291.207 91.1914C296.285 88.6523 302.145 87.3828 308.785 87.3828C313.863 87.3828 318.486 88.1315 322.652 89.6289C326.819 91.0612 330.367 93.3724 333.297 96.5625C336.292 99.6875 338.57 103.789 340.133 108.867C341.76 113.945 342.574 120.163 342.574 127.52V195H314.352V127.52C314.352 122.637 313.701 118.926 312.398 116.387C311.161 113.783 309.339 111.992 306.93 111.016C304.586 109.974 301.786 109.453 298.531 109.453C295.146 109.453 292.184 110.137 289.645 111.504C287.105 112.806 284.99 114.629 283.297 116.973C281.604 119.316 280.335 122.051 279.488 125.176C278.642 128.236 278.219 131.589 278.219 135.234ZM394.477 109.648V235.625H366.352V89.3359H392.426L394.477 109.648ZM461.371 140.996V143.047C461.371 150.729 460.46 157.858 458.637 164.434C456.879 171.009 454.275 176.738 450.824 181.621C447.374 186.439 443.077 190.215 437.934 192.949C432.855 195.618 426.996 196.953 420.355 196.953C413.91 196.953 408.311 195.651 403.559 193.047C398.806 190.443 394.802 186.797 391.547 182.109C388.357 177.357 385.785 171.855 383.832 165.605C381.879 159.355 380.382 152.65 379.34 145.488V140.117C380.382 132.435 381.879 125.404 383.832 119.023C385.785 112.578 388.357 107.012 391.547 102.324C394.802 97.5716 398.773 93.8932 403.461 91.2891C408.214 88.6849 413.78 87.3828 420.16 87.3828C426.866 87.3828 432.758 88.6523 437.836 91.1914C442.979 93.7305 447.276 97.3763 450.727 102.129C454.242 106.882 456.879 112.546 458.637 119.121C460.46 125.697 461.371 132.988 461.371 140.996ZM433.148 143.047V140.996C433.148 136.504 432.758 132.37 431.977 128.594C431.26 124.753 430.089 121.4 428.461 118.535C426.898 115.671 424.815 113.457 422.211 111.895C419.672 110.267 416.579 109.453 412.934 109.453C409.092 109.453 405.805 110.072 403.07 111.309C400.401 112.546 398.22 114.336 396.527 116.68C394.835 119.023 393.565 121.823 392.719 125.078C391.872 128.333 391.352 132.012 391.156 136.113V149.688C391.482 154.505 392.393 158.835 393.891 162.676C395.388 166.452 397.699 169.447 400.824 171.66C403.949 173.874 408.051 174.98 413.129 174.98C416.84 174.98 419.965 174.167 422.504 172.539C425.043 170.846 427.094 168.535 428.656 165.605C430.284 162.676 431.423 159.29 432.074 155.449C432.79 151.608 433.148 147.474 433.148 143.047ZM510.539 45V195H482.316V45H510.539ZM584.414 196.953C576.211 196.953 568.854 195.651 562.344 193.047C555.833 190.378 550.299 186.699 545.742 182.012C541.25 177.324 537.799 171.888 535.391 165.703C532.982 159.453 531.777 152.812 531.777 145.781V141.875C531.777 133.867 532.917 126.543 535.195 119.902C537.474 113.262 540.729 107.5 544.961 102.617C549.258 97.7344 554.466 93.9909 560.586 91.3867C566.706 88.7174 573.607 87.3828 581.289 87.3828C588.776 87.3828 595.417 88.6198 601.211 91.0938C607.005 93.5677 611.855 97.0833 615.762 101.641C619.733 106.198 622.728 111.667 624.746 118.047C626.764 124.362 627.773 131.393 627.773 139.141V150.859H543.789V132.109H600.137V129.961C600.137 126.055 599.421 122.572 597.988 119.512C596.621 116.387 594.538 113.913 591.738 112.09C588.939 110.267 585.358 109.355 580.996 109.355C577.285 109.355 574.095 110.169 571.426 111.797C568.757 113.424 566.576 115.703 564.883 118.633C563.255 121.562 562.018 125.013 561.172 128.984C560.391 132.891 560 137.188 560 141.875V145.781C560 150.013 560.586 153.919 561.758 157.5C562.995 161.081 564.72 164.173 566.934 166.777C569.212 169.382 571.947 171.4 575.137 172.832C578.392 174.264 582.07 174.98 586.172 174.98C591.25 174.98 595.97 174.004 600.332 172.051C604.759 170.033 608.568 167.005 611.758 162.969L625.43 177.812C623.216 181.003 620.189 184.062 616.348 186.992C612.572 189.922 608.014 192.331 602.676 194.219C597.337 196.042 591.25 196.953 584.414 196.953ZM730.504 52.8125V195H701.305V52.8125H730.504ZM785.727 111.895V195H757.602V89.3359H783.969L785.727 111.895ZM781.625 138.457H774.008C774.008 130.645 775.017 123.613 777.035 117.363C779.053 111.048 781.885 105.677 785.531 101.25C789.177 96.7578 793.507 93.3398 798.52 90.9961C803.598 88.5872 809.262 87.3828 815.512 87.3828C820.46 87.3828 824.984 88.099 829.086 89.5312C833.188 90.9635 836.703 93.2422 839.633 96.3672C842.628 99.4922 844.906 103.626 846.469 108.77C848.096 113.913 848.91 120.195 848.91 127.617V195H820.59V127.52C820.59 122.832 819.939 119.186 818.637 116.582C817.335 113.978 815.414 112.155 812.875 111.113C810.401 110.007 807.341 109.453 803.695 109.453C799.919 109.453 796.632 110.202 793.832 111.699C791.098 113.197 788.819 115.28 786.996 117.949C785.238 120.553 783.904 123.613 782.992 127.129C782.081 130.645 781.625 134.421 781.625 138.457ZM924.055 89.3359V109.258H862.531V89.3359H924.055ZM877.766 63.2617H905.891V163.164C905.891 166.224 906.281 168.568 907.062 170.195C907.909 171.823 909.146 172.962 910.773 173.613C912.401 174.199 914.452 174.492 916.926 174.492C918.684 174.492 920.246 174.427 921.613 174.297C923.046 174.102 924.25 173.906 925.227 173.711L925.324 194.414C922.915 195.195 920.311 195.814 917.512 196.27C914.712 196.725 911.62 196.953 908.234 196.953C902.049 196.953 896.646 195.944 892.023 193.926C887.466 191.842 883.951 188.522 881.477 183.965C879.003 179.408 877.766 173.418 877.766 165.996V63.2617ZM990.703 196.953C982.5 196.953 975.143 195.651 968.633 193.047C962.122 190.378 956.589 186.699 952.031 182.012C947.539 177.324 944.089 171.888 941.68 165.703C939.271 159.453 938.066 152.812 938.066 145.781V141.875C938.066 133.867 939.206 126.543 941.484 119.902C943.763 113.262 947.018 107.5 951.25 102.617C955.547 97.7344 960.755 93.9909 966.875 91.3867C972.995 88.7174 979.896 87.3828 987.578 87.3828C995.065 87.3828 1001.71 88.6198 1007.5 91.0938C1013.29 93.5677 1018.14 97.0833 1022.05 101.641C1026.02 106.198 1029.02 111.667 1031.04 118.047C1033.05 124.362 1034.06 131.393 1034.06 139.141V150.859H950.078V132.109H1006.43V129.961C1006.43 126.055 1005.71 122.572 1004.28 119.512C1002.91 116.387 1000.83 113.913 998.027 112.09C995.228 110.267 991.647 109.355 987.285 109.355C983.574 109.355 980.384 110.169 977.715 111.797C975.046 113.424 972.865 115.703 971.172 118.633C969.544 121.562 968.307 125.013 967.461 128.984C966.68 132.891 966.289 137.188 966.289 141.875V145.781C966.289 150.013 966.875 153.919 968.047 157.5C969.284 161.081 971.009 164.173 973.223 166.777C975.501 169.382 978.236 171.4 981.426 172.832C984.681 174.264 988.359 174.98 992.461 174.98C997.539 174.98 1002.26 174.004 1006.62 172.051C1011.05 170.033 1014.86 167.005 1018.05 162.969L1031.72 177.812C1029.51 181.003 1026.48 184.062 1022.64 186.992C1018.86 189.922 1014.3 192.331 1008.96 194.219C1003.63 196.042 997.539 196.953 990.703 196.953ZM1080.2 112.383V195H1052.08V89.3359H1078.54L1080.2 112.383ZM1112.04 88.6523L1111.55 114.727C1110.18 114.531 1108.52 114.368 1106.57 114.238C1104.68 114.043 1102.96 113.945 1101.39 113.945C1097.42 113.945 1093.97 114.466 1091.04 115.508C1088.18 116.484 1085.77 117.949 1083.82 119.902C1081.93 121.855 1080.5 124.232 1079.52 127.031C1078.61 129.831 1078.09 133.021 1077.96 136.602L1072.29 134.844C1072.29 128.008 1072.98 121.725 1074.34 115.996C1075.71 110.202 1077.7 105.156 1080.3 100.859C1082.97 96.5625 1086.23 93.2422 1090.07 90.8984C1093.91 88.5547 1098.3 87.3828 1103.25 87.3828C1104.81 87.3828 1106.41 87.513 1108.04 87.7734C1109.66 87.9688 1111 88.2617 1112.04 88.6523ZM1165.11 195H1136.79V79.9609C1136.79 71.9531 1138.36 65.2148 1141.48 59.7461C1144.67 54.2122 1149.13 50.0456 1154.86 47.2461C1160.65 44.3815 1167.52 42.9492 1175.46 42.9492C1178.07 42.9492 1180.58 43.1445 1182.98 43.5352C1185.39 43.8607 1187.74 44.2839 1190.02 44.8047L1189.72 65.9961C1188.49 65.6706 1187.18 65.4427 1185.82 65.3125C1184.45 65.1823 1182.85 65.1172 1181.03 65.1172C1177.65 65.1172 1174.75 65.7031 1172.34 66.875C1170 67.9818 1168.21 69.6419 1166.97 71.8555C1165.73 74.069 1165.11 76.7708 1165.11 79.9609V195ZM1186.21 89.3359V109.258H1121.07V89.3359H1186.21ZM1259.98 171.172V124.102C1259.98 120.716 1259.43 117.819 1258.32 115.41C1257.22 112.936 1255.49 111.016 1253.15 109.648C1250.87 108.281 1247.91 107.598 1244.26 107.598C1241.14 107.598 1238.43 108.151 1236.16 109.258C1233.88 110.299 1232.12 111.829 1230.88 113.848C1229.65 115.801 1229.03 118.112 1229.03 120.781H1200.9C1200.9 116.289 1201.94 112.025 1204.03 107.988C1206.11 103.952 1209.14 100.404 1213.11 97.3438C1217.08 94.2188 1221.8 91.7773 1227.27 90.0195C1232.8 88.2617 1238.99 87.3828 1245.82 87.3828C1254.03 87.3828 1261.32 88.75 1267.7 91.4844C1274.08 94.2188 1279.09 98.3203 1282.74 103.789C1286.45 109.258 1288.3 116.094 1288.3 124.297V169.512C1288.3 175.306 1288.66 180.059 1289.38 183.77C1290.1 187.415 1291.14 190.605 1292.5 193.34V195H1264.09C1262.72 192.135 1261.68 188.555 1260.96 184.258C1260.31 179.896 1259.98 175.534 1259.98 171.172ZM1263.7 130.645L1263.89 146.562H1248.17C1244.46 146.562 1241.23 146.986 1238.5 147.832C1235.77 148.678 1233.52 149.883 1231.76 151.445C1230 152.943 1228.7 154.701 1227.86 156.719C1227.07 158.737 1226.68 160.951 1226.68 163.359C1226.68 165.768 1227.24 167.949 1228.34 169.902C1229.45 171.79 1231.05 173.288 1233.13 174.395C1235.21 175.436 1237.65 175.957 1240.45 175.957C1244.68 175.957 1248.36 175.111 1251.49 173.418C1254.61 171.725 1257.02 169.642 1258.71 167.168C1260.47 164.694 1261.38 162.35 1261.45 160.137L1268.87 172.051C1267.83 174.72 1266.4 177.487 1264.57 180.352C1262.82 183.216 1260.57 185.918 1257.84 188.457C1255.1 190.931 1251.81 192.982 1247.97 194.609C1244.13 196.172 1239.57 196.953 1234.3 196.953C1227.6 196.953 1221.51 195.618 1216.04 192.949C1210.64 190.215 1206.34 186.471 1203.15 181.719C1200.02 176.901 1198.46 171.432 1198.46 165.312C1198.46 159.779 1199.5 154.863 1201.59 150.566C1203.67 146.27 1206.73 142.656 1210.77 139.727C1214.87 136.732 1219.98 134.486 1226.1 132.988C1232.22 131.426 1239.31 130.645 1247.39 130.645H1263.7ZM1355.64 174.98C1359.09 174.98 1362.15 174.329 1364.82 173.027C1367.49 171.66 1369.57 169.772 1371.07 167.363C1372.63 164.889 1373.44 161.992 1373.51 158.672H1399.97C1399.91 166.094 1397.92 172.702 1394.02 178.496C1390.11 184.225 1384.87 188.75 1378.29 192.07C1371.72 195.326 1364.36 196.953 1356.22 196.953C1348.02 196.953 1340.86 195.586 1334.74 192.852C1328.68 190.117 1323.64 186.341 1319.6 181.523C1315.57 176.641 1312.54 170.977 1310.52 164.531C1308.5 158.021 1307.49 151.055 1307.49 143.633V140.801C1307.49 133.314 1308.5 126.348 1310.52 119.902C1312.54 113.392 1315.57 107.728 1319.6 102.91C1323.64 98.0273 1328.68 94.2188 1334.74 91.4844C1340.79 88.75 1347.89 87.3828 1356.03 87.3828C1364.69 87.3828 1372.27 89.043 1378.78 92.3633C1385.36 95.6836 1390.5 100.436 1394.21 106.621C1397.99 112.741 1399.91 120 1399.97 128.398H1373.51C1373.44 124.883 1372.69 121.693 1371.26 118.828C1369.89 115.964 1367.88 113.685 1365.21 111.992C1362.6 110.234 1359.38 109.355 1355.54 109.355C1351.44 109.355 1348.08 110.234 1345.48 111.992C1342.88 113.685 1340.86 116.029 1339.43 119.023C1337.99 121.953 1336.98 125.306 1336.4 129.082C1335.88 132.793 1335.62 136.699 1335.62 140.801V143.633C1335.62 147.734 1335.88 151.673 1336.4 155.449C1336.92 159.225 1337.9 162.578 1339.33 165.508C1340.83 168.438 1342.88 170.749 1345.48 172.441C1348.08 174.134 1351.47 174.98 1355.64 174.98ZM1466.91 196.953C1458.71 196.953 1451.35 195.651 1444.84 193.047C1438.33 190.378 1432.8 186.699 1428.24 182.012C1423.75 177.324 1420.3 171.888 1417.89 165.703C1415.48 159.453 1414.28 152.812 1414.28 145.781V141.875C1414.28 133.867 1415.42 126.543 1417.7 119.902C1419.97 113.262 1423.23 107.5 1427.46 102.617C1431.76 97.7344 1436.97 93.9909 1443.09 91.3867C1449.21 88.7174 1456.11 87.3828 1463.79 87.3828C1471.28 87.3828 1477.92 88.6198 1483.71 91.0938C1489.51 93.5677 1494.36 97.0833 1498.26 101.641C1502.23 106.198 1505.23 111.667 1507.25 118.047C1509.26 124.362 1510.27 131.393 1510.27 139.141V150.859H1426.29V132.109H1482.64V129.961C1482.64 126.055 1481.92 122.572 1480.49 119.512C1479.12 116.387 1477.04 113.913 1474.24 112.09C1471.44 110.267 1467.86 109.355 1463.5 109.355C1459.79 109.355 1456.6 110.169 1453.93 111.797C1451.26 113.424 1449.08 115.703 1447.38 118.633C1445.76 121.562 1444.52 125.013 1443.67 128.984C1442.89 132.891 1442.5 137.188 1442.5 141.875V145.781C1442.5 150.013 1443.09 153.919 1444.26 157.5C1445.49 161.081 1447.22 164.173 1449.43 166.777C1451.71 169.382 1454.45 171.4 1457.64 172.832C1460.89 174.264 1464.57 174.98 1468.67 174.98C1473.75 174.98 1478.47 174.004 1482.83 172.051C1487.26 170.033 1491.07 167.005 1494.26 162.969L1507.93 177.812C1505.72 181.003 1502.69 184.062 1498.85 186.992C1495.07 189.922 1490.51 192.331 1485.18 194.219C1479.84 196.042 1473.75 196.953 1466.91 196.953Z" fill="black"/>
<path d="M178 1640.74C583.738 1638.88 1038.92 1638.88 1444.6 1640.74C1038.86 1642.62 583.677 1642.59 178 1640.74Z" fill="#263238"/>
<path d="M1406.66 394H908.802C902.126 394.06 895.527 395.434 889.383 398.045C883.238 400.656 877.669 404.452 872.992 409.216C868.315 413.98 864.623 419.619 862.126 425.811C859.63 432.003 858.378 438.626 858.442 445.302V1469.91C858.328 1483.39 863.568 1496.36 873.01 1505.98C882.452 1515.6 895.324 1521.08 908.802 1521.22H1406.66C1420.15 1521.09 1433.03 1515.61 1442.49 1505.99C1451.94 1496.38 1457.19 1483.4 1457.09 1469.91V445.302C1457.2 431.814 1451.95 418.832 1442.5 409.212C1433.04 399.592 1420.15 394.12 1406.66 394ZM1425.56 1438.23C1425.56 1465.21 1405.36 1487.04 1380.45 1487.04H935.045C910.078 1487.04 889.879 1465.21 889.879 1438.23V484.242C889.879 429.295 910.078 426.531 935.045 426.531H1024.25C1029.45 426.531 1033.67 432.423 1033.67 439.713V442.751C1033.67 459.851 1043.06 459.912 1054.54 459.912H1260.87C1272.47 459.912 1281.77 459.912 1281.77 442.751V439.713C1281.77 432.423 1285.96 426.531 1291.21 426.531H1380.39C1405.3 426.531 1425.5 433.851 1425.5 484.242L1425.56 1438.23Z" fill="#0D0D2B"/>
<path d="M1425.44 484.241V1438.23C1425.44 1465.2 1405.24 1487.04 1380.33 1487.04H935.045C910.078 1487.04 889.879 1465.2 889.879 1438.23V484.241C889.879 429.294 910.078 426.53 935.045 426.53H1024.25C1029.45 426.53 1033.67 432.422 1033.67 439.712V442.75C1033.67 459.85 1043.06 459.911 1054.54 459.911H1260.87C1272.47 459.911 1281.77 459.911 1281.77 442.75V439.712C1281.77 432.422 1285.96 426.53 1291.21 426.53H1380.39C1405.24 426.53 1425.44 433.82 1425.44 484.241Z" fill="white"/>
<path d="M1008.76 447.945C1008.49 448.218 1008.19 448.491 1007.91 448.795L1007.43 449.281C1005.22 447.079 1002.23 445.843 999.119 445.843C996.004 445.843 993.016 447.079 990.812 449.281L990.326 448.795L989.476 447.945L990.539 447.003C992.24 445.627 994.253 444.688 996.401 444.269C996.978 444.269 997.525 444.117 998.072 444.026H999.651H1000.81C1001.84 444.159 1002.86 444.414 1003.84 444.786C1004.56 445.043 1005.25 445.358 1005.91 445.727C1006.6 446.14 1007.26 446.608 1007.88 447.125L1008.79 447.945H1008.76Z" fill="#C7C7C7"/>
<path d="M993.576 451.986L992.209 450.649C993.695 449.136 995.638 448.154 997.737 447.855C999.248 447.634 1000.79 447.768 1002.24 448.248C1003.69 448.728 1005.01 449.54 1006.09 450.619L1004.72 451.986C1003.24 450.511 1001.24 449.683 999.149 449.683C997.06 449.683 995.056 450.511 993.576 451.986Z" fill="#C7C7C7"/>
<path d="M1003.42 453.349L1002.05 454.715C1001.68 454.333 1001.24 454.031 1000.75 453.827C1000.25 453.623 999.727 453.523 999.196 453.531C998.664 453.524 998.137 453.626 997.646 453.83C997.155 454.033 996.711 454.335 996.34 454.715L995.004 453.349C996.135 452.263 997.643 451.656 999.211 451.656C1000.78 451.656 1002.29 452.263 1003.42 453.349Z" fill="#C7C7C7"/>
<path d="M1000.44 455.934C1000.45 456.182 1000.38 456.425 1000.25 456.634C1000.11 456.843 999.92 457.007 999.693 457.106C999.466 457.205 999.215 457.234 998.971 457.189C998.728 457.145 998.503 457.029 998.326 456.856C998.149 456.683 998.027 456.461 997.976 456.219C997.926 455.976 997.949 455.725 998.042 455.495C998.135 455.266 998.295 455.07 998.5 454.931C998.706 454.793 998.948 454.719 999.195 454.719C999.357 454.715 999.518 454.744 999.669 454.803C999.82 454.862 999.958 454.951 1000.07 455.064C1000.19 455.177 1000.28 455.313 1000.35 455.462C1000.41 455.611 1000.44 455.772 1000.44 455.934Z" fill="#C7C7C7"/>
<path d="M924.809 450.526C924.809 449.824 925.018 449.136 925.408 448.552C925.799 447.968 926.354 447.512 927.003 447.243C927.652 446.974 928.367 446.904 929.056 447.041C929.746 447.178 930.379 447.517 930.876 448.014C931.373 448.511 931.711 449.144 931.848 449.833C931.986 450.522 931.915 451.237 931.646 451.886C931.377 452.536 930.922 453.091 930.337 453.481C929.753 453.872 929.066 454.08 928.363 454.08C927.896 454.08 927.434 453.988 927.003 453.81C926.572 453.631 926.18 453.369 925.85 453.039C925.52 452.709 925.258 452.318 925.08 451.886C924.901 451.455 924.809 450.993 924.809 450.526Z" fill="#C7C7C7"/>
<path d="M935.865 450.526C935.865 449.824 936.074 449.136 936.464 448.552C936.855 447.968 937.41 447.512 938.059 447.243C938.708 446.974 939.423 446.904 940.112 447.041C940.802 447.178 941.435 447.517 941.932 448.014C942.429 448.511 942.767 449.144 942.904 449.833C943.042 450.522 942.971 451.237 942.702 451.886C942.433 452.536 941.978 453.091 941.393 453.481C940.809 453.872 940.122 454.08 939.419 454.08C938.952 454.08 938.49 453.988 938.059 453.81C937.628 453.631 937.236 453.369 936.906 453.039C936.576 452.709 936.314 452.318 936.136 451.886C935.957 451.455 935.865 450.993 935.865 450.526Z" fill="#C7C7C7"/>
<path d="M947.165 450.526C947.165 449.824 947.373 449.136 947.763 448.552C948.154 447.968 948.709 447.512 949.358 447.243C950.008 446.974 950.722 446.904 951.412 447.041C952.101 447.178 952.734 447.517 953.231 448.014C953.728 448.511 954.067 449.144 954.204 449.833C954.341 450.522 954.271 451.237 954.002 451.886C953.733 452.536 953.277 453.091 952.693 453.481C952.108 453.872 951.421 454.08 950.718 454.08C950.252 454.08 949.79 453.988 949.358 453.81C948.927 453.631 948.535 453.369 948.205 453.039C947.875 452.709 947.614 452.318 947.435 451.886C947.256 451.455 947.165 450.993 947.165 450.526Z" fill="#C7C7C7"/>
<path d="M958.373 450.526C958.373 449.822 958.582 449.134 958.974 448.549C959.366 447.964 959.922 447.508 960.574 447.24C961.225 446.972 961.941 446.904 962.631 447.043C963.321 447.183 963.954 447.524 964.45 448.024C964.946 448.524 965.282 449.16 965.416 449.852C965.549 450.543 965.475 451.259 965.201 451.907C964.927 452.556 964.467 453.109 963.879 453.496C963.29 453.883 962.6 454.086 961.896 454.08C961.431 454.08 960.97 453.988 960.541 453.809C960.111 453.63 959.721 453.368 959.394 453.037C959.066 452.707 958.807 452.315 958.632 451.884C958.457 451.453 958.369 450.992 958.373 450.526Z" fill="#C7C7C7"/>
<path d="M969.55 450.526C969.55 449.822 969.76 449.134 970.152 448.549C970.543 447.964 971.1 447.508 971.751 447.24C972.403 446.972 973.119 446.904 973.809 447.043C974.499 447.183 975.132 447.524 975.628 448.024C976.124 448.524 976.46 449.16 976.593 449.852C976.727 450.543 976.652 451.259 976.379 451.907C976.105 452.556 975.645 453.109 975.056 453.496C974.468 453.883 973.778 454.086 973.074 454.08C972.609 454.08 972.148 453.988 971.718 453.809C971.289 453.63 970.899 453.368 970.572 453.037C970.244 452.707 969.985 452.315 969.81 451.884C969.635 451.453 969.546 450.992 969.55 450.526Z" fill="#C7C7C7"/>
<path d="M1385.4 458.303H1356.52V444.908H1385.4V458.303ZM1358.07 456.814H1384.04V446.366H1358.07V456.814Z" fill="#C7C7C7"/>
<path d="M1377.41 447.187H1358.79V456.025H1377.41V447.187Z" fill="#C7C7C7"/>
<path d="M1387.89 448.006H1385.31V455.175H1387.89V448.006Z" fill="#C7C7C7"/>
<path d="M1185.81 438.679H1129.56C1128.63 438.679 1127.75 438.311 1127.09 437.656C1126.44 437.001 1126.07 436.113 1126.07 435.186C1126.08 434.265 1126.45 433.384 1127.1 432.736C1127.76 432.087 1128.64 431.724 1129.56 431.724H1185.81C1186.74 431.724 1187.62 432.087 1188.27 432.736C1188.93 433.384 1189.3 434.265 1189.31 435.186C1189.31 436.113 1188.94 437.001 1188.28 437.656C1187.63 438.311 1186.74 438.679 1185.81 438.679Z" fill="white"/>
<path d="M1397.13 497.605H918.249V637.387H1397.13V497.605Z" fill="#BB0163"/>
<path d="M945.494 542.531L929.669 527.678L945.494 512.855L947.954 515.467L934.924 527.678L947.954 539.888L945.494 542.531Z" fill="white"/>
<path d="M1385.74 518.444C1385.74 519.045 1385.56 519.632 1385.23 520.132C1384.89 520.631 1384.42 521.02 1383.86 521.25C1383.31 521.48 1382.7 521.54 1382.11 521.423C1381.52 521.306 1380.98 521.017 1380.55 520.592C1380.13 520.167 1379.84 519.626 1379.72 519.037C1379.6 518.448 1379.66 517.837 1379.89 517.282C1380.12 516.727 1380.51 516.252 1381.01 515.919C1381.51 515.585 1382.1 515.407 1382.7 515.407C1383.51 515.407 1384.28 515.727 1384.85 516.296C1385.42 516.866 1385.74 517.639 1385.74 518.444Z" fill="white"/>
<path d="M1385.74 529.532C1385.74 530.132 1385.56 530.72 1385.23 531.219C1384.89 531.719 1384.42 532.108 1383.86 532.338C1383.31 532.568 1382.7 532.628 1382.11 532.511C1381.52 532.393 1380.98 532.104 1380.55 531.679C1380.13 531.255 1379.84 530.713 1379.72 530.124C1379.6 529.535 1379.66 528.924 1379.89 528.369C1380.12 527.814 1380.51 527.34 1381.01 527.006C1381.51 526.672 1382.1 526.494 1382.7 526.494C1383.51 526.494 1384.28 526.814 1384.85 527.384C1385.42 527.953 1385.74 528.726 1385.74 529.532Z" fill="white"/>
<path d="M1385.74 540.587C1385.74 541.187 1385.56 541.775 1385.23 542.274C1384.89 542.774 1384.42 543.163 1383.86 543.393C1383.31 543.623 1382.7 543.683 1382.11 543.566C1381.52 543.449 1380.98 543.159 1380.55 542.735C1380.13 542.31 1379.84 541.768 1379.72 541.179C1379.6 540.59 1379.66 539.979 1379.89 539.424C1380.12 538.869 1380.51 538.395 1381.01 538.061C1381.51 537.727 1382.1 537.549 1382.7 537.549C1383.51 537.549 1384.28 537.869 1384.85 538.439C1385.42 539.009 1385.74 539.781 1385.74 540.587Z" fill="white"/>
<path d="M969.55 527.675C1024.65 525.64 1080.14 525.64 1135.27 527.675C1080.14 529.71 1024.65 529.71 969.55 527.675Z" fill="white"/>
<path d="M969.55 542.529C1006.76 541.527 1047.7 541.527 1084.97 542.529C1047.76 543.531 1006.82 543.501 969.55 542.529Z" fill="white"/>
<path d="M1024.35 593.589C1109.76 592.647 1205.59 592.647 1290.97 593.589C1205.59 594.531 1109.76 594.531 1024.35 593.589Z" fill="white"/>
<path d="M1013.72 698.41C1049.13 696.333 1084.62 696.333 1120.03 698.41C1084.62 700.472 1049.13 700.472 1013.72 698.41Z" fill="#263238"/>
<path d="M1013.72 713.992C1043.41 711.927 1073.21 711.927 1102.9 713.992C1073.21 716.057 1043.41 716.057 1013.72 713.992Z" fill="#263238"/>
<path d="M1393.58 764.079C1392.52 763.047 919.5 767.117 920.594 764.079V681.097V679.943H921.748L1157.6 680.186C1236.36 680.368 1315.12 680.186 1393.91 680.672C1393.91 680.945 1393.46 763.654 1393.58 763.988V764.079ZM1393.58 764.079L1393.25 681.097C1316.73 682.494 1235.63 681.37 1157.6 681.887C1158.67 681.067 916.189 684.104 922.75 681.097V764.079C916.311 761.254 1395.13 764.96 1393.7 764.079H1393.58Z" fill="#DBDBDB"/>
<path d="M993.978 693.034H933.837V753.174H993.978V693.034Z" fill="#BB0163"/>
<path d="M1013.72 833.526C1049.13 831.464 1084.62 831.464 1120.03 833.526C1084.62 835.588 1049.13 835.588 1013.72 833.526Z" fill="#263238"/>
<path d="M1013.72 849.169C1043.41 847.104 1073.21 847.104 1102.9 849.169C1073.21 851.235 1043.41 851.235 1013.72 849.169Z" fill="#263238"/>
<path d="M1393.58 899.255C1392.52 898.222 919.5 902.292 920.594 899.255V816.272V815.118H921.748L1157.72 815.452C1236.48 815.635 1315.25 815.452 1394.04 815.938C1394.04 816.212 1393.58 898.921 1393.7 899.255H1393.58ZM1393.58 899.255L1393.25 816.272C1316.73 817.67 1235.63 816.546 1157.6 817.062C1158.67 816.242 916.189 819.279 922.75 816.272V899.255C916.311 896.43 1395.13 900.135 1393.7 899.255H1393.58Z" fill="#DBDBDB"/>
<path d="M993.978 828.209H933.837V888.35H993.978V828.209Z" fill="#0D0D2B"/>
<path d="M1013.72 968.704C1049.13 966.642 1084.62 966.642 1120.03 968.704C1084.62 970.766 1049.13 970.766 1013.72 968.704Z" fill="#263238"/>
<path d="M1013.72 984.347C1043.41 982.281 1073.21 982.281 1102.9 984.347C1073.21 986.412 1043.41 986.412 1013.72 984.347Z" fill="#263238"/>
<path d="M1393.58 1034.43C1392.52 1033.4 919.5 1037.47 920.594 1034.43V951.452V950.298H921.748L1157.72 950.632C1236.48 950.814 1315.25 950.632 1394.04 951.118C1394.04 951.391 1393.58 1034.1 1393.7 1034.43H1393.58ZM1393.58 1034.43L1393.25 951.452C1316.73 952.849 1235.63 951.725 1157.6 952.242C1158.67 951.422 916.189 954.459 922.75 951.452V1034.43C916.311 1031.61 1395.13 1035.32 1393.7 1034.43H1393.58Z" fill="#DBDBDB"/>
<path d="M993.978 963.389H933.837V1023.53H993.978V963.389Z" fill="#BB0163"/>
<path d="M1013.72 1104.36C1049.13 1102.28 1084.62 1102.28 1120.03 1104.36C1084.62 1106.42 1049.13 1106.42 1013.72 1104.36Z" fill="#263238"/>
<path d="M1013.72 1119.94C1043.41 1117.87 1073.21 1117.87 1102.9 1119.94C1073.21 1122 1043.41 1122 1013.72 1119.94Z" fill="#263238"/>
<path d="M1393.58 1170.02C1392.52 1168.99 919.5 1173.06 920.594 1170.02V1087.04V1085.89H921.748L1157.6 1086.13C1236.36 1086.31 1315.12 1086.13 1393.91 1086.62C1393.91 1086.89 1393.46 1169.6 1393.58 1169.93V1170.02ZM1393.58 1170.02L1393.25 1087.04C1316.73 1088.44 1235.63 1087.31 1157.6 1087.83C1158.67 1087.01 916.189 1090.05 922.75 1087.04V1170.02C916.311 1167.2 1395.13 1170.9 1393.7 1170.02H1393.58Z" fill="#DBDBDB"/>
<path d="M993.978 1098.98H933.837V1159.12H993.978V1098.98Z" fill="#BB0163"/>
<path d="M1013.72 1239.88C1049.13 1237.82 1084.62 1237.82 1120.03 1239.88C1084.62 1241.94 1049.13 1241.94 1013.72 1239.88Z" fill="#263238"/>
<path d="M1013.72 1255.52C1043.41 1253.46 1073.21 1253.46 1102.9 1255.52C1073.21 1257.59 1043.41 1257.59 1013.72 1255.52Z" fill="#263238"/>
<path d="M1393.58 1305.61C1392.52 1304.58 919.5 1308.65 920.594 1305.61V1222.63V1221.47H921.748L1157.72 1221.81C1236.48 1221.99 1315.25 1221.81 1394.04 1222.29C1394.04 1222.57 1393.58 1305.27 1393.7 1305.61H1393.58ZM1393.58 1305.61L1393.25 1222.63C1316.73 1224.02 1235.63 1222.9 1157.6 1223.42C1158.67 1222.6 916.189 1225.63 922.75 1222.63V1305.61C916.311 1302.78 1395.13 1306.49 1393.7 1305.61H1393.58Z" fill="#DBDBDB"/>
<path d="M993.978 1234.56H933.837V1294.7H993.978V1234.56Z" fill="#0D0D2B"/>
<path d="M1013.72 1375.47C1049.13 1373.41 1084.62 1373.41 1120.03 1375.47C1084.62 1377.53 1049.13 1377.53 1013.72 1375.47Z" fill="#263238"/>
<path d="M1013.72 1391.11C1043.41 1389.05 1073.21 1389.05 1102.9 1391.11C1073.21 1393.18 1043.41 1393.18 1013.72 1391.11Z" fill="#263238"/>
<path d="M1393.58 1441.2C1392.52 1440.17 919.5 1444.24 920.594 1441.2V1358.22V1357.06H921.748L1157.72 1357.4C1236.48 1357.58 1315.25 1357.4 1394.04 1357.88C1394.04 1358.16 1393.58 1440.86 1393.7 1441.2H1393.58ZM1393.58 1441.2L1393.25 1358.22C1316.73 1359.61 1235.63 1358.49 1157.6 1359.01C1158.67 1358.19 916.189 1361.22 922.75 1358.22V1441.2C916.311 1438.37 1395.13 1442.08 1393.7 1441.2H1393.58Z" fill="#DBDBDB"/>
<path d="M993.978 1370.15H933.837V1430.29H993.978V1370.15Z" fill="#BB0163"/>
<path d="M596.581 1095.18C602.7 1094.29 608.436 1091.67 613.115 1087.62C617.795 1083.58 621.223 1078.29 622.998 1072.37C624.772 1066.44 624.819 1060.14 623.133 1054.19C621.447 1048.24 618.098 1042.89 613.479 1038.78C626.402 1035.61 637.374 1026.42 638.154 1011.96C638.983 996.967 628.157 985.581 614.015 982.703C614.015 982.703 613.869 982.85 614.015 982.898C626.572 986.946 636.764 997.943 635.813 1011.77C635.009 1023.59 627.45 1030.84 617.819 1034.79C621.568 1031.59 624.622 1027.67 626.791 1023.24C628.959 1018.82 630.196 1014 630.425 1009.09C630.509 1003.59 628.959 998.187 625.973 993.569C622.987 988.951 618.698 985.322 613.649 983.142C618.672 971.634 620.038 957.589 613.454 946.373C610.783 941.674 606.801 937.855 601.995 935.382C597.188 932.91 591.766 931.891 586.389 932.45C587.825 926.539 587.496 920.337 585.441 914.611C583.386 908.886 579.697 903.889 574.831 900.24C569.964 896.59 564.134 894.449 558.062 894.081C551.99 893.712 545.944 895.134 540.672 898.168C541.277 893.821 540.775 889.392 539.213 885.29C537.652 881.188 535.081 877.546 531.738 874.702C528.396 871.858 524.39 869.903 520.091 869.018C515.792 868.133 511.339 868.347 507.145 869.64C506.958 866.28 505.808 863.045 503.832 860.321C501.856 857.598 499.138 855.5 496.002 854.279C488.687 851.158 480.641 852.865 473.497 855.766C471.496 852.879 468.802 850.54 465.662 848.964C462.523 847.388 459.038 846.625 455.527 846.745C451.01 847.055 446.752 848.963 443.513 852.125C440.275 855.288 438.267 859.5 437.849 864.008C425.658 861.057 412.003 859.57 400.592 865.714C391.205 870.786 384.158 880.954 385.426 891.78C380.119 891.217 374.753 891.787 369.682 893.45C364.612 895.114 359.951 897.834 356.009 901.43C352.066 905.027 348.931 909.419 346.811 914.317C344.69 919.214 343.632 924.505 343.707 929.841C339.145 930.739 334.898 932.819 331.393 935.875C327.889 938.93 325.248 942.853 323.737 947.251C321.4 953.215 320.563 959.662 321.299 966.026C317.269 967.121 313.686 969.459 311.06 972.707C308.433 975.954 306.897 979.947 306.669 984.118C306.157 992.456 310.229 999.137 315.837 1004.62C316.341 1006.83 316.341 1009.12 315.837 1011.33C314.637 1016.91 314.842 1022.71 316.433 1028.19C318.025 1033.68 320.954 1038.68 324.957 1042.76C323.358 1045.7 322.406 1048.95 322.162 1052.29C321.918 1055.63 322.388 1058.98 323.542 1062.12C324.696 1065.26 326.506 1068.12 328.852 1070.51C331.198 1072.9 334.026 1074.76 337.148 1075.97C335.821 1082.79 337.23 1089.86 341.071 1095.66C344.912 1101.45 350.877 1105.5 357.678 1106.93C357.019 1112.43 357.549 1118 359.232 1123.27C360.914 1128.54 363.711 1133.39 367.431 1137.49C373.308 1143.78 382.549 1148.26 390.79 1145.04C390.644 1151.82 397.544 1156.63 404.103 1157.24C406.598 1157.38 409.101 1157.24 411.564 1156.82C414.466 1156.38 418.099 1155.07 421.025 1155.7C423.951 1156.33 426.219 1159.24 428.584 1161.02C430.293 1162.29 432.132 1163.39 434.07 1164.28C441.372 1167.48 449.547 1168.1 457.246 1166.03C464.946 1163.96 471.71 1159.33 476.423 1152.9C485.591 1159.72 497.831 1157.19 507.291 1151.77C510.307 1149.94 513.161 1147.85 515.825 1145.53C518.083 1143.32 520.97 1141.85 524.091 1141.34C526.139 1141.09 528.261 1141.34 530.333 1141.09C537.355 1140.34 542.11 1135.49 546.231 1130.2C571.491 1147.43 599.824 1123.03 596.581 1095.18ZM309.4 988.092C308.999 983.756 309.957 979.404 312.142 975.637C314.326 971.871 317.629 968.878 321.592 967.074C321.592 967.732 321.836 968.147 321.836 968.147C321.836 968.147 319.665 970.073 318.715 971.122C317.014 973.058 315.609 975.236 314.545 977.583C312.271 982.492 311.507 987.966 312.351 993.31C312.78 995.666 313.501 997.959 314.496 1000.14C314.496 1000.43 314.691 1000.7 314.813 1000.97C311.851 997.259 309.977 992.802 309.4 988.092ZM459.574 852.572C455.444 852.278 451.324 853.259 447.77 855.383C444.216 857.507 441.4 860.67 439.702 864.447L439.044 864.276C441.311 855.937 445.676 848.939 455.673 848.5C458.759 848.397 461.818 849.106 464.544 850.557C467.27 852.008 469.567 854.149 471.205 856.766H471.083C467.716 854.316 463.728 852.863 459.574 852.572ZM547.06 1129.07C547.122 1129 547.179 1128.91 547.231 1128.83C556.178 1131.95 565.987 1131.45 574.577 1127.46C583.167 1123.46 589.861 1116.27 593.241 1107.42C587.145 1127.51 570.248 1141.34 547.06 1129.07Z" fill="#0D0D2B"/>
<path d="M470.035 1242.23C519.435 1347.93 603.166 1490.94 641.593 1496.96C664.805 1500.57 704.062 1503.72 733.882 1475.6C798.984 1414.28 843.605 1326.67 868.329 1281.69C879.545 1261.25 754.047 1170.35 738.271 1189.64C701.282 1234.75 659.563 1322.19 652.712 1321.92C627.402 1320.89 589.853 1259.28 528.53 1202.15C454.674 1133.29 448.944 1197.08 470.035 1242.23Z" fill="#FFBE9D"/>
<path d="M850.432 1310.29C881.447 1277.2 922.166 1227.9 922.264 1207.15C922.264 1185.4 919.655 1108.84 913.291 1091.26C906.927 1073.68 872.864 1028.32 857.21 1022.35C844.702 1017.47 838.021 1033.03 852.553 1061.12C868.816 1092.52 863.842 1105.2 864.598 1115.27C865.378 1125.71 847.896 1170.09 833.242 1173.79C824.586 1176.01 806.64 1175.91 802.568 1160.31C798.496 1144.7 802.568 1130.61 796.546 1103.4C791.815 1082.23 774.138 1069.09 766.847 1072.8C759.557 1076.5 765.604 1089.16 760.8 1120.86C757.801 1140.63 754.875 1154.82 731.297 1183.72C710.669 1209 709.353 1244.01 709.353 1244.01L850.432 1310.29Z" fill="#FFBE9D"/>
<path d="M923.702 1158.36C922.848 1146.43 931.017 1110.3 928.188 1094.55C925.36 1078.8 906.878 1020.81 889.176 1016.08C867.012 1010.16 873.595 1057.29 878.301 1077.5C883.007 1097.72 870.084 1134.14 870.084 1134.14L900.587 1147.12L923.702 1158.36Z" fill="#AD6359"/>
<path d="M865.72 1142.46C871.181 1124.13 877.911 1105.5 878.228 1086.23C877.277 1072.43 874.522 1058.85 873.864 1044.95C873.669 1036.71 873.157 1027.72 877.326 1020.25C878.035 1019.03 879.014 1017.98 880.189 1017.19C881.363 1016.4 882.702 1015.89 884.104 1015.69C882.775 1016 881.529 1016.6 880.454 1017.44C879.38 1018.29 878.504 1019.35 877.887 1020.57C874.4 1028.08 875.229 1036.74 875.741 1044.83C876.668 1055.8 878.472 1066.78 879.886 1077.77C882.739 1100.13 873.669 1122 865.72 1142.46Z" fill="#263238"/>
<path d="M922.678 1168.75C925.116 1157.14 942.891 1125.05 944.622 1109.2C946.354 1093.35 944.769 1032.76 929.31 1023.13C909.804 1010.94 903.123 1057.88 902.026 1078.53C900.928 1099.18 878.521 1130.12 878.521 1130.12L903.927 1151.34L922.678 1168.75Z" fill="#FFBE9D"/>
<path d="M871.962 1136.76C882.251 1120.86 893.906 1105.06 899.393 1086.72C902.319 1073.34 903.44 1059.63 906.707 1046.22C908.804 1038.32 910.779 1029.59 916.826 1023.67C917.84 1022.69 919.064 1021.97 920.405 1021.54C921.746 1021.12 923.167 1021.01 924.556 1021.23C923.2 1021.12 921.839 1021.33 920.573 1021.82C919.306 1022.31 918.167 1023.09 917.241 1024.08C911.852 1030.28 910.243 1038.71 908.487 1046.56C906.342 1057.29 905.049 1068.17 903.343 1079.07C899.929 1101.13 885.202 1119.52 871.962 1136.71V1136.76Z" fill="#263238"/>
<path d="M876.131 1164.67C861.892 1176.48 841.995 1180.86 823.952 1182.06C810.164 1182.56 796.646 1186.03 784.33 1192.25C780.212 1194.32 776.215 1196.63 772.358 1199.15C786.936 1187.27 804.967 1180.43 823.757 1179.64C841.873 1178.38 860.697 1174.77 876.107 1164.65L876.131 1164.67Z" fill="#263238"/>
<path d="M921.166 1028.67L856.649 1203.44C855.722 1205.82 854.006 1207.82 851.787 1209.08C849.568 1210.35 846.981 1210.82 844.458 1210.41L756.801 1192.96C755.673 1192.75 754.605 1192.3 753.678 1191.62C752.75 1190.95 751.987 1190.07 751.445 1189.06C750.904 1188.05 750.597 1186.93 750.55 1185.79C750.502 1184.64 750.713 1183.5 751.169 1182.45L815.686 1007.7C816.597 1005.3 818.31 1003.3 820.532 1002.02C822.754 1000.74 825.35 1000.28 827.877 1000.7L915.534 1018.16C916.662 1018.36 917.73 1018.82 918.658 1019.49C919.585 1020.16 920.348 1021.04 920.89 1022.05C921.432 1023.06 921.738 1024.18 921.786 1025.33C921.833 1026.47 921.622 1027.61 921.166 1028.67Z" fill="#37474F"/>
<path d="M910.145 1017.09L822.367 999.652C819.842 999.23 817.249 999.693 815.027 1000.96C812.805 1002.24 811.091 1004.24 810.175 1006.63L745.658 1181.38C745.203 1182.43 744.991 1183.57 745.039 1184.72C745.087 1185.86 745.393 1186.98 745.935 1187.99C746.476 1189 747.239 1189.88 748.167 1190.55C749.094 1191.23 750.162 1191.68 751.291 1191.89L839.069 1209.34C841.593 1209.76 844.184 1209.3 846.405 1208.03C848.626 1206.76 850.341 1204.76 851.26 1202.37L915.777 1027.62C916.237 1026.57 916.453 1025.42 916.407 1024.27C916.362 1023.12 916.056 1022 915.514 1020.99C914.972 1019.97 914.208 1019.1 913.278 1018.42C912.348 1017.74 911.277 1017.29 910.145 1017.09ZM847.725 1195.86C846.941 1198.07 845.42 1199.95 843.418 1201.17C841.417 1202.4 839.055 1202.9 836.728 1202.59L758.289 1186.99C757.252 1186.76 756.279 1186.3 755.443 1185.65C754.607 1185 753.93 1184.16 753.461 1183.21C752.992 1182.26 752.744 1181.22 752.736 1180.16C752.727 1179.09 752.958 1178.05 753.412 1177.09L813.589 1014.36C817.051 1004.97 820.904 1005.24 825.171 1006.11L840.873 1009.23C841.8 1009.41 842.166 1010.58 841.702 1011.82L841.507 1012.36C840.434 1015.26 842.068 1015.6 844.092 1016.01L880.422 1023.33C882.47 1023.72 884.104 1024.04 885.299 1021.13L885.494 1020.6C885.957 1019.33 887.054 1018.48 887.932 1018.67L903.635 1021.79C908.024 1022.67 911.12 1024.62 907.951 1033.2L847.725 1195.86Z" fill="#263238"/>
<path d="M907.805 1033.13L847.725 1195.86C846.941 1198.07 845.421 1199.95 843.419 1201.17C841.417 1202.4 839.055 1202.9 836.729 1202.59L758.289 1186.98C757.252 1186.76 756.28 1186.3 755.444 1185.65C754.608 1185 753.93 1184.16 753.461 1183.21C752.992 1182.26 752.745 1181.21 752.736 1180.15C752.728 1179.09 752.959 1178.04 753.412 1177.08L813.589 1014.35C817.052 1004.97 820.904 1005.23 825.171 1006.11L840.874 1009.23C841.8 1009.4 842.166 1010.57 841.703 1011.82L841.508 1012.35C840.435 1015.26 842.068 1015.6 844.092 1016.01L880.423 1023.33C882.471 1023.72 884.104 1024.03 885.299 1021.13L885.494 1020.6C885.958 1019.33 887.055 1018.47 887.933 1018.67L903.635 1021.79C907.878 1022.59 910.974 1024.55 907.805 1033.13Z" fill="white"/>
<path d="M836.728 1012.35H836.509C836.384 1012.12 836.206 1011.92 835.99 1011.77C835.775 1011.62 835.526 1011.52 835.265 1011.48C834.688 1011.38 834.095 1011.48 833.583 1011.77V1011.6L833.827 1011.45L834.388 1011.28C834.606 1011.26 834.827 1011.26 835.046 1011.28H835.607H835.802C835.975 1011.33 836.139 1011.4 836.289 1011.5L836.606 1011.74C836.701 1011.84 836.783 1011.94 836.85 1012.06L836.972 1012.23L836.728 1012.35Z" fill="#C7C7C7"/>
<path d="M833.778 1012.5L833.632 1012.23C833.975 1012.02 834.375 1011.92 834.778 1011.94C835.042 1011.95 835.299 1012.03 835.525 1012.16C835.751 1012.3 835.938 1012.49 836.07 1012.72L835.753 1012.89C835.664 1012.74 835.541 1012.6 835.393 1012.5C835.245 1012.4 835.077 1012.33 834.9 1012.31C834.515 1012.24 834.118 1012.31 833.778 1012.5Z" fill="#C7C7C7"/>
<path d="M835.534 1013.09L835.217 1013.26C835.17 1013.18 835.11 1013.12 835.039 1013.07C834.968 1013.02 834.887 1012.98 834.802 1012.96C834.614 1012.89 834.406 1012.89 834.217 1012.96L834.071 1012.7C834.191 1012.62 834.325 1012.57 834.466 1012.55C834.607 1012.52 834.751 1012.53 834.888 1012.57C835.026 1012.6 835.155 1012.67 835.266 1012.76C835.377 1012.85 835.468 1012.96 835.534 1013.09Z" fill="#C7C7C7"/>
<path d="M834.729 1013.5C834.703 1013.55 834.661 1013.6 834.608 1013.62C834.555 1013.65 834.494 1013.66 834.436 1013.65C834.41 1013.64 834.386 1013.63 834.364 1013.61C834.342 1013.6 834.324 1013.58 834.311 1013.55C834.297 1013.53 834.288 1013.51 834.284 1013.48C834.281 1013.45 834.283 1013.43 834.29 1013.4C834.315 1013.35 834.357 1013.3 834.409 1013.27C834.462 1013.24 834.522 1013.23 834.583 1013.23C834.612 1013.24 834.639 1013.25 834.663 1013.26C834.687 1013.28 834.707 1013.3 834.721 1013.33C834.735 1013.36 834.743 1013.38 834.744 1013.41C834.746 1013.44 834.74 1013.47 834.729 1013.5Z" fill="#C7C7C7"/>
<path d="M821.757 1009.84C821.826 1009.68 821.946 1009.54 822.101 1009.45C822.255 1009.36 822.435 1009.33 822.611 1009.35C822.688 1009.37 822.762 1009.4 822.825 1009.45C822.889 1009.5 822.941 1009.56 822.979 1009.63C823.016 1009.7 823.037 1009.77 823.041 1009.85C823.045 1009.93 823.031 1010.01 823.001 1010.09C822.94 1010.26 822.821 1010.4 822.664 1010.49C822.508 1010.58 822.324 1010.61 822.147 1010.57C822.07 1010.56 821.996 1010.52 821.933 1010.48C821.869 1010.43 821.817 1010.37 821.779 1010.3C821.742 1010.23 821.721 1010.15 821.717 1010.07C821.713 1009.99 821.727 1009.91 821.757 1009.84Z" fill="#C7C7C7"/>
<path d="M823.732 1010.23C823.797 1010.07 823.917 1009.93 824.073 1009.84C824.228 1009.75 824.409 1009.72 824.586 1009.75C824.664 1009.76 824.737 1009.79 824.8 1009.84C824.864 1009.89 824.916 1009.95 824.954 1010.02C824.991 1010.09 825.012 1010.17 825.016 1010.25C825.02 1010.32 825.006 1010.4 824.976 1010.48C824.911 1010.64 824.791 1010.78 824.636 1010.87C824.48 1010.96 824.299 1010.99 824.122 1010.96C824.045 1010.95 823.971 1010.92 823.908 1010.87C823.844 1010.82 823.792 1010.76 823.755 1010.69C823.717 1010.62 823.696 1010.54 823.692 1010.46C823.688 1010.39 823.702 1010.31 823.732 1010.23Z" fill="#C7C7C7"/>
<path d="M825.78 1010.62C825.847 1010.46 825.965 1010.33 826.114 1010.24C826.263 1010.15 826.437 1010.11 826.609 1010.13C826.689 1010.15 826.765 1010.18 826.832 1010.22C826.898 1010.27 826.953 1010.33 826.993 1010.4C827.033 1010.47 827.057 1010.55 827.062 1010.63C827.067 1010.71 827.054 1010.79 827.024 1010.86C826.959 1011.03 826.839 1011.17 826.684 1011.26C826.528 1011.35 826.347 1011.38 826.17 1011.35C826.09 1011.34 826.014 1011.31 825.948 1011.27C825.881 1011.22 825.827 1011.16 825.789 1011.09C825.751 1011.01 825.73 1010.94 825.729 1010.85C825.727 1010.77 825.745 1010.69 825.78 1010.62Z" fill="#C7C7C7"/>
<path d="M827.658 1011.06C827.727 1010.9 827.849 1010.76 828.004 1010.68C828.159 1010.6 828.338 1010.57 828.511 1010.6C828.591 1010.61 828.667 1010.64 828.734 1010.69C828.8 1010.73 828.855 1010.79 828.895 1010.86C828.935 1010.93 828.959 1011.01 828.964 1011.09C828.969 1011.17 828.956 1011.25 828.926 1011.33C828.853 1011.49 828.731 1011.62 828.577 1011.7C828.423 1011.79 828.246 1011.82 828.072 1011.79C827.993 1011.78 827.917 1011.75 827.85 1011.7C827.784 1011.66 827.728 1011.6 827.688 1011.53C827.649 1011.46 827.625 1011.38 827.62 1011.3C827.615 1011.22 827.628 1011.13 827.658 1011.06Z" fill="#C7C7C7"/>
<path d="M829.633 1011.4C829.702 1011.24 829.824 1011.1 829.979 1011.02C830.134 1010.93 830.312 1010.91 830.486 1010.94C830.566 1010.95 830.643 1010.98 830.709 1011.02C830.775 1011.07 830.83 1011.13 830.868 1011.2C830.906 1011.27 830.926 1011.35 830.928 1011.43C830.929 1011.51 830.912 1011.59 830.876 1011.67C830.807 1011.83 830.685 1011.96 830.53 1012.05C830.375 1012.13 830.196 1012.16 830.023 1012.13C829.945 1012.12 829.872 1012.08 829.808 1012.04C829.745 1011.99 829.692 1011.93 829.655 1011.86C829.618 1011.79 829.596 1011.71 829.592 1011.63C829.589 1011.55 829.602 1011.47 829.633 1011.4Z" fill="#C7C7C7"/>
<path d="M902.367 1027.32L897.271 1026.3L898.124 1024.01L903.196 1025.03L902.367 1027.32ZM897.637 1026.1L902.196 1027.01L902.855 1025.23L898.271 1024.32L897.637 1026.1Z" fill="#C7C7C7"/>
<path d="M901.685 1025.15L898.393 1024.5L897.832 1026.01L901.124 1026.64L901.685 1025.15Z" fill="#C7C7C7"/>
<path d="M903.025 1026.88L902.562 1026.78L903.001 1025.57L903.464 1025.64L903.025 1026.88Z" fill="#C7C7C7"/>
<path d="M868.475 1016.96L858.551 1014.98C858.474 1014.97 858.401 1014.94 858.337 1014.9C858.274 1014.85 858.221 1014.79 858.183 1014.73C858.146 1014.66 858.124 1014.58 858.12 1014.5C858.116 1014.43 858.13 1014.35 858.161 1014.28C858.229 1014.12 858.347 1013.99 858.497 1013.9C858.647 1013.82 858.82 1013.79 858.99 1013.81L868.914 1015.79C868.991 1015.8 869.064 1015.83 869.127 1015.88C869.191 1015.92 869.244 1015.98 869.281 1016.05C869.319 1016.12 869.341 1016.19 869.344 1016.27C869.348 1016.35 869.335 1016.42 869.304 1016.5C869.239 1016.66 869.122 1016.79 868.971 1016.87C868.82 1016.96 868.645 1016.99 868.475 1016.96Z" fill="white"/>
<path d="M766.14 1178.26L765.677 1178.18L764.921 1180.23L764.067 1180.06L764.457 1179.01L762.921 1178.69L762.531 1179.74L761.678 1179.57L762.434 1177.52L761.97 1177.43L764.823 1175.77L766.14 1178.26Z" fill="#EBEBEB"/>
<path d="M841.361 1191.76L836.338 1190.74L836.607 1190.05L841.629 1191.05L841.361 1191.76Z" fill="#EBEBEB"/>
<path d="M840.727 1193.47L835.704 1192.47L835.972 1191.79L840.995 1192.76L840.727 1193.47Z" fill="#EBEBEB"/>
<path d="M840.093 1195.2L835.07 1194.2L835.339 1193.49L840.361 1194.49L840.093 1195.2Z" fill="#EBEBEB"/>
<path d="M802.885 1185.64L800.91 1186.84L800.008 1185.06L800.349 1184.89L801.081 1186.33L802.714 1185.35L802.885 1185.64Z" fill="#EBEBEB"/>
<path d="M800.325 1188.35C799.997 1188.29 799.687 1188.17 799.416 1187.97C799.145 1187.78 798.922 1187.53 798.762 1187.24C798.602 1186.95 798.511 1186.63 798.494 1186.29C798.478 1185.96 798.537 1185.63 798.667 1185.33C798.937 1184.64 799.435 1184.06 800.079 1183.7C800.723 1183.33 801.473 1183.2 802.202 1183.33C802.53 1183.38 802.841 1183.51 803.111 1183.7C803.382 1183.89 803.606 1184.14 803.765 1184.44C803.925 1184.73 804.016 1185.05 804.033 1185.38C804.049 1185.71 803.99 1186.04 803.86 1186.35C803.591 1187.04 803.092 1187.61 802.448 1187.98C801.804 1188.34 801.054 1188.47 800.325 1188.35ZM802.056 1183.67C801.426 1183.56 800.777 1183.67 800.221 1183.99C799.665 1184.3 799.236 1184.8 799.008 1185.4C798.898 1185.66 798.849 1185.95 798.864 1186.24C798.88 1186.53 798.959 1186.81 799.097 1187.06C799.235 1187.31 799.428 1187.53 799.662 1187.7C799.895 1187.87 800.163 1187.98 800.447 1188.03C801.083 1188.14 801.735 1188.02 802.295 1187.7C802.854 1187.38 803.287 1186.88 803.519 1186.28C803.63 1186.01 803.678 1185.72 803.661 1185.44C803.644 1185.15 803.562 1184.87 803.422 1184.62C803.281 1184.37 803.085 1184.15 802.848 1183.98C802.611 1183.82 802.341 1183.71 802.056 1183.67Z" fill="#EBEBEB"/>
<path d="M819.611 1026.25L817.758 1023.18L821.489 1021.2L821.757 1021.72L818.685 1023.35L820.197 1025.89L819.611 1026.25Z" fill="#DBDBDB"/>
<path d="M898.661 1037.59C898.601 1037.73 898.494 1037.85 898.356 1037.93C898.219 1038.01 898.059 1038.03 897.905 1038C897.834 1037.99 897.767 1037.97 897.709 1037.93C897.65 1037.89 897.602 1037.84 897.569 1037.77C897.535 1037.71 897.517 1037.64 897.516 1037.57C897.515 1037.5 897.531 1037.43 897.563 1037.37C897.618 1037.23 897.721 1037.11 897.854 1037.03C897.988 1036.95 898.144 1036.93 898.295 1036.95C898.365 1036.96 898.432 1036.99 898.49 1037.03C898.549 1037.07 898.598 1037.12 898.633 1037.18C898.668 1037.24 898.689 1037.31 898.694 1037.38C898.699 1037.45 898.687 1037.52 898.661 1037.59Z" fill="#DBDBDB"/>
<path d="M897.954 1039.47C897.9 1039.61 897.798 1039.73 897.665 1039.81C897.532 1039.89 897.376 1039.93 897.222 1039.9C897.152 1039.89 897.084 1039.86 897.026 1039.82C896.968 1039.78 896.919 1039.72 896.884 1039.66C896.849 1039.6 896.829 1039.53 896.824 1039.46C896.819 1039.39 896.83 1039.31 896.857 1039.25C896.919 1039.1 897.027 1038.99 897.164 1038.91C897.301 1038.84 897.458 1038.81 897.612 1038.83C897.68 1038.84 897.744 1038.87 897.8 1038.91C897.856 1038.95 897.902 1039.01 897.934 1039.07C897.967 1039.13 897.986 1039.2 897.989 1039.26C897.993 1039.33 897.981 1039.4 897.954 1039.47Z" fill="#DBDBDB"/>
<path d="M897.247 1041.37C897.192 1041.51 897.089 1041.63 896.956 1041.71C896.822 1041.78 896.666 1041.81 896.515 1041.78C896.445 1041.77 896.379 1041.75 896.32 1041.71C896.261 1041.67 896.213 1041.62 896.177 1041.56C896.142 1041.5 896.121 1041.43 896.116 1041.36C896.112 1041.29 896.123 1041.22 896.15 1041.15C896.209 1041 896.316 1040.88 896.454 1040.81C896.592 1040.73 896.751 1040.71 896.906 1040.74C896.976 1040.74 897.043 1040.77 897.101 1040.81C897.16 1040.85 897.208 1040.9 897.242 1040.96C897.275 1041.03 897.293 1041.1 897.294 1041.17C897.295 1041.24 897.279 1041.31 897.247 1041.37Z" fill="#DBDBDB"/>
<path d="M841.508 1028.13C852.48 1029.91 863.452 1032.08 874.083 1034.62C863.111 1032.86 852.139 1030.69 841.508 1028.13Z" fill="#DBDBDB"/>
<path d="M810.81 1036.35C818.736 1037.5 826.597 1039.06 834.363 1041.03C826.437 1039.87 818.576 1038.31 810.81 1036.35Z" fill="#DBDBDB"/>
<path d="M872.766 1057.92C878.163 1058.58 883.502 1059.65 888.737 1061.12C883.339 1060.47 877.999 1059.4 872.766 1057.92Z" fill="#DBDBDB"/>
<path d="M872.108 1059.66C877.506 1060.31 882.846 1061.37 888.079 1062.85C882.682 1062.19 877.343 1061.12 872.108 1059.66Z" fill="#DBDBDB"/>
<path d="M809.932 1038.74C815.035 1039.34 820.083 1040.35 825.025 1041.76C819.921 1041.16 814.874 1040.15 809.932 1038.74Z" fill="#DBDBDB"/>
<path d="M843.044 1052.51L828.219 1073.6L819.636 1096.84C816.603 1096.33 813.723 1095.14 811.215 1093.36C808.707 1091.58 806.635 1089.26 805.154 1086.56C803.674 1083.86 802.823 1080.87 802.667 1077.79C802.51 1074.72 803.052 1071.66 804.251 1068.82C806.739 1062.48 811.33 1057.18 817.255 1053.82C823.18 1050.46 830.08 1049.23 836.802 1050.34C838.976 1050.76 841.078 1051.49 843.044 1052.51Z" fill="#BB0163"/>
<path d="M835.533 1095.13C830.513 1097.24 824.988 1097.83 819.636 1096.84L828.218 1073.6L835.533 1095.13Z" fill="#263238"/>
<path d="M852.187 1078.36C850.712 1082.15 848.47 1085.6 845.6 1088.49C842.73 1091.37 839.295 1093.64 835.509 1095.13L828.194 1073.6L852.26 1062.7C854.189 1067.75 854.163 1073.33 852.187 1078.36Z" fill="#37474F"/>
<path d="M855.503 1061.53L827.877 1074.04L844.945 1049.88C849.737 1052.39 853.48 1056.52 855.503 1061.53Z" fill="#C7C7C7"/>
<path d="M840.191 1075.97C838.946 1079.14 836.649 1081.79 833.684 1083.47C830.719 1085.16 827.266 1085.77 823.903 1085.21C822.388 1084.95 820.95 1084.36 819.697 1083.47C818.444 1082.58 817.408 1081.42 816.667 1080.07C815.926 1078.73 815.499 1077.23 815.418 1075.7C815.336 1074.16 815.603 1072.63 816.198 1071.21C817.443 1068.04 819.74 1065.39 822.705 1063.71C825.67 1062.03 829.123 1061.41 832.486 1061.97C834.005 1062.22 835.449 1062.81 836.707 1063.69C837.966 1064.58 839.005 1065.74 839.748 1067.09C840.49 1068.44 840.916 1069.94 840.993 1071.48C841.07 1073.02 840.795 1074.55 840.191 1075.97Z" fill="white"/>
<path d="M869.548 1059.56L866.987 1059.05L867.889 1056.56L870.474 1057.07L869.548 1059.56Z" fill="#BB0163"/>
<path d="M870.353 1064.48C875.751 1065.13 881.09 1066.2 886.323 1067.68C880.926 1067.02 875.587 1065.95 870.353 1064.48Z" fill="#DBDBDB"/>
<path d="M869.67 1066.22C875.066 1066.87 880.404 1067.93 885.641 1069.39C880.244 1068.74 874.905 1067.68 869.67 1066.22Z" fill="#DBDBDB"/>
<path d="M867.134 1066.12L864.549 1065.61L865.476 1063.1L868.06 1063.63L867.134 1066.12Z" fill="#263238"/>
<path d="M867.914 1071.04C873.321 1071.69 878.669 1072.76 883.909 1074.24C878.505 1073.58 873.158 1072.51 867.914 1071.04Z" fill="#DBDBDB"/>
<path d="M867.231 1072.77C872.628 1073.42 877.967 1074.48 883.202 1075.94C877.807 1075.29 872.468 1074.23 867.231 1072.77Z" fill="#DBDBDB"/>
<path d="M864.72 1072.68L862.135 1072.16L863.062 1069.65L865.646 1070.17L864.72 1072.68Z" fill="#37474F"/>
<path d="M865.5 1077.6C870.897 1078.25 876.236 1079.31 881.471 1080.77C876.076 1080.12 870.737 1079.06 865.5 1077.6Z" fill="#DBDBDB"/>
<path d="M864.793 1079.33C870.189 1079.98 875.528 1081.04 880.764 1082.5C875.368 1081.85 870.029 1080.79 864.793 1079.33Z" fill="#DBDBDB"/>
<path d="M862.306 1079.24L859.721 1078.73L860.648 1076.21L863.232 1076.73L862.306 1079.24Z" fill="#C7C7C7"/>
<path d="M815.027 1181.4L809.371 1180.28L829.17 1126.69L834.802 1127.81L815.027 1181.4Z" fill="#EBEBEB"/>
<path d="M787.987 1099.64C803.202 1102.25 819.1 1105.42 834.047 1108.81C818.832 1106.18 802.91 1103.03 787.987 1099.64Z" fill="#263238"/>
<path d="M786.89 1102.62C795.546 1103.94 804.129 1105.64 812.492 1107.72C803.836 1106.42 795.253 1104.72 786.89 1102.62Z" fill="#263238"/>
<path d="M853.113 1112.61C859.168 1113.5 865.174 1114.7 871.108 1116.2C865.054 1115.3 859.048 1114.11 853.113 1112.61Z" fill="#BB0163"/>
<path d="M777.112 1149.26L775.284 1148.9L786.037 1119.74L787.89 1120.1L777.112 1149.26Z" fill="#BB0163"/>
<path d="M769.261 1170.55L767.408 1170.16L774.333 1151.41L776.186 1151.8L769.261 1170.55Z" fill="#455A64"/>
<path d="M790.45 1139L788.621 1138.61L794.936 1121.51L796.789 1121.88L790.45 1139Z" fill="#BB0163"/>
<path d="M778.161 1172.31L776.308 1171.94L787.694 1141.14L789.523 1141.51L778.161 1172.31Z" fill="#455A64"/>
<path d="M802.763 1131.51L800.91 1131.14L803.836 1123.27L805.665 1123.63L802.763 1131.51Z" fill="#BB0163"/>
<path d="M787.061 1174.08L785.208 1173.72L799.984 1133.66L801.837 1134.05L787.061 1174.08Z" fill="#455A64"/>
<path d="M806.567 1147.09L804.714 1146.73L812.712 1125.05L814.565 1125.42L806.567 1147.09Z" fill="#BB0163"/>
<path d="M795.936 1175.84L794.107 1175.47L803.787 1149.26L805.64 1149.63L795.936 1175.84Z" fill="#455A64"/>
<path d="M817.149 1144.29L815.296 1143.92L821.611 1126.81L823.464 1127.2L817.149 1144.29Z" fill="#BB0163"/>
<path d="M804.836 1177.62L802.982 1177.25L814.369 1146.46L816.198 1146.82L804.836 1177.62Z" fill="#455A64"/>
<path d="M818.563 1166.28L816.734 1165.92L830.511 1128.59L832.339 1128.95L818.563 1166.28Z" fill="#BB0163"/>
<path d="M813.735 1179.4L811.882 1179.04L815.784 1168.43L817.637 1168.8L813.735 1179.4Z" fill="#455A64"/>
<path d="M835.387 1146.58L833.534 1146.21L839.386 1130.37L841.239 1130.73L835.387 1146.58Z" fill="#BB0163"/>
<path d="M822.611 1181.16L820.782 1180.79L832.608 1148.73L834.461 1149.09L822.611 1181.16Z" fill="#455A64"/>
<path d="M833.607 1177.23L831.754 1176.86L848.286 1132.12L850.139 1132.51L833.607 1177.23Z" fill="#BB0163"/>
<path d="M831.511 1182.94L829.658 1182.57L830.828 1179.4L832.681 1179.77L831.511 1182.94Z" fill="#455A64"/>
<path d="M855.479 1143.85L853.65 1143.48L857.186 1133.9L859.015 1134.27L855.479 1143.85Z" fill="#BB0163"/>
<path d="M840.41 1184.71L838.557 1184.32L852.699 1145.99L854.552 1146.38L840.41 1184.71Z" fill="#455A64"/>
<path d="M794.473 1111.42C799.878 1112.08 805.225 1113.15 810.468 1114.62C805.062 1113.97 799.714 1112.9 794.473 1111.42Z" fill="#DBDBDB"/>
<path d="M793.839 1113.15C799.238 1113.8 804.578 1114.87 809.81 1116.35C804.413 1115.68 799.075 1114.62 793.839 1113.15Z" fill="#DBDBDB"/>
<path d="M791.279 1113.05L788.694 1112.54L789.621 1110.05L792.205 1110.57L791.279 1113.05Z" fill="#BB0163"/>
<path d="M821.147 1116.74C826.554 1117.38 831.902 1118.45 837.143 1119.93C831.736 1119.28 826.388 1118.21 821.147 1116.74Z" fill="#DBDBDB"/>
<path d="M820.514 1118.47C825.91 1119.12 831.249 1120.18 836.484 1121.64C831.089 1120.98 825.75 1119.92 820.514 1118.47Z" fill="#DBDBDB"/>
<path d="M817.954 1118.37L815.369 1117.86L816.296 1115.37L818.88 1115.88L817.954 1118.37Z" fill="#455A64"/>
<path d="M917.631 1221.56C922.507 1211.05 939.38 1169.7 940.331 1152.19C941.282 1134.68 936.064 1067.9 918.386 1057.85C896.027 1045.22 891.2 1097.11 891.175 1119.88C891.151 1142.66 870.815 1166.82 870.815 1166.82L903.44 1195.66L917.631 1221.56Z" fill="#FFBE9D"/>
<path d="M894.052 1084.21C894.329 1091.79 894.215 1099.37 893.711 1106.93C893.745 1114.13 893.24 1121.32 892.199 1128.44C890.623 1135.34 887.913 1141.93 884.177 1147.95C882.397 1150.95 880.471 1153.82 878.423 1156.65C876.375 1159.48 873.668 1162.65 871.522 1165.77C871.303 1166.09 870.742 1165.77 870.962 1165.43C874.669 1159.54 877.984 1153.42 880.885 1147.09C884.02 1140.6 886.338 1133.75 887.786 1126.68C890.614 1112.64 890.37 1098.11 893.077 1084.04C893.126 1083.48 894.052 1083.65 894.052 1084.21Z" fill="#263238"/>
<path d="M892.126 1128.42C891.882 1112.47 887.713 1046.22 916.314 1056.02C932.26 1065.29 936.6 1099.91 938.453 1116.98C935.381 1101.04 929.871 1066.46 915.314 1058.02C890.663 1050 893.613 1113.81 892.126 1128.32V1128.42Z" fill="#263238"/>
<path d="M708.109 1225.63L849.53 1342.23C849.53 1342.23 774.26 1457.19 723.227 1489.65C699.136 1504.94 650.273 1505.01 633.985 1498.91C618.771 1493.26 533.382 1408.06 469.499 1254.69C419.977 1135.41 499.051 1164.67 528.676 1195.57C560.617 1228.85 644.885 1314.21 649.517 1312.82C654.15 1311.43 708.109 1225.63 708.109 1225.63Z" fill="#BB0163"/>
<path d="M689.724 1267.76C711.059 1284.39 731.858 1301.66 752.534 1318.97C762.678 1327.48 801.641 1362.86 812.882 1372.83C813.321 1373.24 812.272 1374.39 811.785 1374.02C800.739 1365.51 759.532 1330.84 749.535 1322.16C729.176 1304.46 708.938 1286.64 689.236 1268.2C688.895 1267.96 689.358 1267.47 689.724 1267.76Z" fill="#263238"/>
<path opacity="0.1" d="M708.743 1496.28C683.214 1504.79 647.518 1503.96 634.083 1498.91C618.868 1493.23 533.479 1408.04 469.572 1254.72C442.361 1189.4 453.845 1168.65 474.692 1168.4C504.805 1210.24 630.06 1385.29 708.743 1496.28Z" fill="black"/>
<path d="M615.601 1641.89H242.031C260.318 1553.41 340.002 1234.7 404.982 1187.57C444.945 1158.55 497.637 1178.67 506.707 1191.06C543.549 1241.92 604.897 1560.5 615.601 1641.89Z" fill="white"/>
<path d="M512.851 1200.49C512.851 1200.32 512.558 1200.37 512.558 1200.49C514.387 1216.05 517.435 1252.16 489.005 1251.7C477.569 1251.53 466.889 1246.04 457.941 1240.55C448.935 1234.98 440.563 1228.44 432.973 1221.05C424.387 1213.2 416.498 1204.63 409.395 1195.42C409.102 1195.03 408.419 1195.42 408.712 1195.88C415.856 1205 421.903 1214.56 430.096 1223.05C438.046 1231.48 447.121 1238.79 457.063 1244.75C466.621 1250.36 477.959 1255.79 490.053 1255.45C495.078 1255.54 499.994 1253.99 504.062 1251.04C508.129 1248.09 511.128 1243.89 512.607 1239.09C516.484 1226.8 515.631 1212.71 512.851 1200.49Z" fill="#263238"/>
<path d="M416.905 1175.14C416.905 1175.14 441.678 1307.34 446.359 1356.42C451.041 1405.51 436.143 1641.9 436.143 1641.9H235.716C235.716 1641.9 296.429 1351.2 355.996 1238.6C389.328 1175.77 416.905 1175.14 416.905 1175.14Z" fill="#BB0163"/>
<path d="M502.343 1184.18C502.343 1184.18 542.355 1333.72 544.988 1349.62C547.622 1365.51 560.91 1643.19 560.91 1643.19L626.378 1642.72C626.378 1642.72 557.57 1224.17 502.343 1184.18Z" fill="#BB0163"/>
<path d="M354.217 1228.6C269.852 1342.18 175.612 1569.43 204.652 1608.66C237.033 1652.55 354.363 1493.33 352.68 1485.26C351.413 1479.14 381.672 1344.94 405.201 1247.09C428.731 1149.24 375.064 1200.52 354.217 1228.6Z" fill="#AD6359"/>
<path d="M353.631 1485.28C355.899 1471.07 397.837 1293.8 409.102 1238.02C420.367 1182.23 400.69 1168.26 353.973 1224.46C307.255 1280.66 212.82 1459.71 198.191 1549.92C184.073 1636.68 226.865 1630.65 277.947 1584.37C319.763 1546.41 353.631 1485.28 353.631 1485.28Z" fill="#BB0163"/>
<path d="M353.631 1485.28C365.774 1416.47 381.216 1348.36 399.958 1280.95C387.848 1349.74 372.406 1417.85 353.631 1485.28Z" fill="#263238"/>
<path d="M402.226 1291.02C401.638 1300.31 398.063 1309.17 392.034 1316.26C394.911 1307.7 398.569 1299.31 402.226 1291.02Z" fill="#263238"/>
<path d="M204.652 1608.66C231.254 1637.24 292.43 1634.77 446.896 1643.09C468.279 1644.23 516.972 1495.52 494.198 1493.13C465.524 1490.11 353.582 1484.6 345.463 1485.21C275.874 1490.52 186.609 1589.3 204.652 1608.66Z" fill="#FFBE9D"/>
<path d="M467.183 1498.45C467.183 1498.45 524.043 1480.09 556.911 1479.68C600.922 1479.14 639.13 1496.74 654.687 1505.16C687.189 1522.61 753.681 1587.3 738.393 1609.71C724.568 1629.97 659.929 1560.43 659.929 1560.43C659.929 1560.43 737.539 1620.46 716.375 1641.82C695.211 1663.18 624.793 1578.18 624.793 1578.18C624.793 1578.18 703.135 1641.58 677.85 1660.23C658.734 1674.25 590.584 1600.86 590.584 1600.86C590.584 1600.86 657.539 1655.89 638.521 1671.15C617.478 1688.05 550.352 1624.24 550.352 1624.24C495.418 1654.94 456.698 1647.06 429.828 1638.21C423.318 1636.07 467.183 1498.45 467.183 1498.45Z" fill="#FFBE9D"/>
<path d="M634.424 1537.95C643.787 1544.68 653.321 1551.41 662.074 1558.94C670.828 1566.48 679.288 1574.33 687.286 1582.64C706.914 1603.03 716.009 1618.85 715.351 1617.95C699.526 1596.25 668.658 1568.79 659.904 1561.26C651.151 1553.72 642.836 1545.8 634.131 1538.27C633.912 1538.07 634.205 1537.73 634.424 1537.95Z" fill="#263238"/>
<path d="M606.652 1569.01C618.234 1578.11 630.084 1586.72 641.275 1596.35C652.467 1605.98 662.147 1615.85 672.607 1626.29C673.412 1627.07 672.607 1627.24 671.876 1626.48C661.026 1616.58 650.224 1608.29 639.252 1598.54C628.279 1588.79 617.697 1578.6 606.408 1569.28C606.335 1569.14 606.481 1568.87 606.652 1569.01Z" fill="#263238"/>
<path d="M578.026 1591.37C596.46 1604.37 612.455 1620.75 627.767 1637.21C628.548 1638.01 627.621 1638.14 626.792 1637.36C610.553 1621.8 597.898 1609.49 577.563 1592C577.246 1591.76 577.636 1591.13 578.026 1591.37Z" fill="#263238"/>
<path d="M476.448 1488.62L365.36 1653.86C365.36 1653.86 227.841 1642.04 203.409 1610.63C187.316 1589.96 274.802 1484.75 351.998 1484.72L476.448 1488.62Z" fill="#BB0163"/>
<path d="M264.975 1521.3C275.923 1510.72 307.401 1485.26 352.022 1484.58C352.412 1484.58 352.509 1485.21 352.022 1485.26C318.837 1488.97 276.654 1512.52 265.243 1521.83C265.097 1522.03 264.755 1521.57 264.975 1521.3Z" fill="#263238"/>
<path d="M325.932 1634.38C337.172 1615.56 349.412 1597.35 361.701 1579.18C373.99 1561.02 386.255 1542.78 399.007 1524.91C406.322 1514.81 413.344 1504.67 420.952 1494.82C421.147 1494.55 421.634 1494.82 421.464 1495.11C410.248 1513.91 398.056 1532.2 385.913 1550.41C373.771 1568.62 361.36 1586.81 348.827 1604.86C341.756 1615.02 334.466 1625.1 326.883 1634.95C326.468 1635.43 325.542 1634.92 325.932 1634.38Z" fill="#263238"/>
<path d="M476.423 1486.7C467.987 1485.41 459.475 1484.69 450.943 1484.55C442.409 1484.16 433.875 1483.92 425.341 1483.75C408.273 1483.43 372.405 1480.8 341.732 1485.19C341.391 1485.19 343.366 1486.65 343.707 1486.58C358.19 1483.72 465.767 1489.82 474.448 1489.23C474.169 1489.84 473.941 1490.47 473.765 1491.11C473.765 1491.55 474.155 1492.04 474.57 1491.67C475.545 1490.79 476.179 1489.8 477.008 1488.84C477.18 1488.69 477.306 1488.49 477.371 1488.27C477.436 1488.05 477.439 1487.81 477.378 1487.59C477.317 1487.37 477.196 1487.17 477.027 1487.01C476.858 1486.85 476.649 1486.74 476.423 1486.7Z" fill="#263238"/>
<path d="M238.154 1630.39C251.76 1633.21 270.827 1638.75 284.482 1642.31C268.427 1641.28 252.709 1637.24 238.154 1630.39Z" fill="#263238"/>
<path d="M486.347 1238.82C466.109 1241.26 427.584 1213.46 416.661 1183.71C415.905 1181.67 421.781 1162.23 427.804 1138.26C431.388 1123.63 435.118 1107.42 437.313 1092.33C437.776 1089.23 528.602 1129.54 528.602 1129.54C528.602 1129.54 514.533 1159.82 510.754 1186.18C510.466 1188.26 510.368 1190.37 510.461 1192.47C510.461 1192.76 510.461 1193.1 510.461 1193.52C510.608 1205.56 507.999 1236.16 486.347 1238.82Z" fill="#FFBE9D"/>
<path d="M510.486 1192.47C510.486 1192.76 510.486 1193.15 510.486 1193.52C507.216 1193.44 503.956 1193.13 500.733 1192.57C445.164 1182.96 440.922 1110.98 440.727 1092.87C457.209 1097.74 528.675 1129.44 528.675 1129.44C528.675 1129.44 514.607 1159.75 510.803 1186.11C510.512 1188.21 510.406 1190.34 510.486 1192.47Z" fill="#263238"/>
<path d="M437.362 972.049C423.098 1004.58 429.462 1104.13 450.894 1128.66C481.958 1164.26 538.551 1173.96 570.224 1135.32C600.946 1097.84 590.364 968.245 565.908 945.35C529.846 911.677 458.429 924.064 437.362 972.049Z" fill="#FFBE9D"/>
<path d="M524.945 1046.32C524.945 1046.07 524.433 1046.66 524.458 1046.95C524.897 1053.66 524.287 1061.41 518.289 1063.85C518.094 1063.85 518.143 1064.26 518.289 1064.21C525.726 1062.92 526.457 1052.51 524.945 1046.32Z" fill="#263238"/>
<path d="M518.703 1039.54C507.877 1039.1 507.804 1060.78 517.825 1061.19C527.847 1061.61 527.774 1039.91 518.703 1039.54Z" fill="#0D0D2B"/>
<path d="M563.836 1047.64C563.836 1047.37 564.348 1047.95 564.348 1048.22C564.104 1054.93 564.957 1062.68 571.029 1064.92C571.224 1064.92 571.199 1065.34 571.029 1065.29C563.568 1064.17 562.446 1053.9 563.836 1047.64Z" fill="#263238"/>
<path d="M569.761 1040.59C580.562 1039.81 581.343 1061.49 571.321 1062.19C561.3 1062.9 560.788 1041.22 569.761 1040.59Z" fill="#0D0D2B"/>
<path d="M510.193 1029.57C513.033 1028.76 515.825 1027.79 518.556 1026.67C521.751 1025.5 524.433 1024.91 526.554 1022.03C527.064 1021.16 527.27 1020.14 527.143 1019.13C527.015 1018.13 526.559 1017.19 525.847 1016.47C522.604 1013.6 518.313 1014.04 514.387 1015.26C510.347 1016.34 506.864 1018.91 504.634 1022.45C504.151 1023.29 503.93 1024.25 503.999 1025.22C504.067 1026.19 504.423 1027.11 505.019 1027.88C505.616 1028.64 506.427 1029.21 507.348 1029.51C508.27 1029.81 509.26 1029.83 510.193 1029.57Z" fill="#0D0D2B"/>
<path d="M578.295 1029.69C575.385 1029.1 572.511 1028.34 569.687 1027.42C566.371 1026.52 563.665 1026.13 561.324 1023.45C560.748 1022.61 560.465 1021.61 560.517 1020.59C560.57 1019.58 560.957 1018.61 561.617 1017.84C564.64 1014.72 568.932 1014.81 572.955 1015.74C577.024 1016.55 580.647 1018.85 583.122 1022.18C583.645 1022.97 583.927 1023.89 583.933 1024.84C583.94 1025.78 583.671 1026.71 583.159 1027.51C582.647 1028.3 581.915 1028.94 581.051 1029.32C580.187 1029.71 579.229 1029.84 578.295 1029.69Z" fill="#0D0D2B"/>
<path d="M518.557 1108.59C520.166 1110.18 521.776 1112.35 524.214 1112.54C526.744 1112.53 529.24 1111.96 531.529 1110.88C531.748 1110.88 531.968 1111.03 531.821 1111.23C530.857 1112.54 529.556 1113.58 528.054 1114.22C526.552 1114.85 524.905 1115.08 523.287 1114.86C521.926 1114.48 520.704 1113.71 519.77 1112.65C518.835 1111.59 518.228 1110.28 518.021 1108.88C517.752 1108.59 518.264 1108.42 518.557 1108.59Z" fill="#263238"/>
<path d="M525.628 1088.57C527.327 1091.23 529.558 1093.52 532.18 1095.28C534.802 1097.04 537.759 1098.25 540.867 1098.81C543.574 1099.33 546.341 1099.46 549.084 1099.2C549.617 1099.21 550.149 1099.15 550.669 1099.03C551.161 1098.99 551.65 1098.92 552.132 1098.81C552.49 1098.75 552.816 1098.56 553.063 1098.3C553.309 1098.03 553.461 1097.69 553.497 1097.32C553.509 1097.1 553.509 1096.87 553.497 1096.64V1095.98C553.644 1090.81 553.18 1082.96 553.18 1082.96C555.058 1083.91 564.689 1088.28 564.543 1085.57C563.299 1063.19 561.91 1038.32 555.936 1016.3C555.913 1016.14 555.827 1015.99 555.697 1015.89C555.567 1015.8 555.402 1015.75 555.241 1015.78C555.079 1015.8 554.933 1015.89 554.835 1016.02C554.736 1016.15 554.694 1016.31 554.717 1016.47C555.058 1038.03 559.203 1059.39 559.886 1081.01C556.463 1079.42 552.836 1078.3 549.109 1077.7C548.377 1077.92 550.279 1092.89 550.035 1095.2C550.047 1095.28 550.047 1095.37 550.035 1095.45C541.33 1096.54 534.796 1093.89 526.384 1088.01C525.872 1087.57 525.238 1088.03 525.628 1088.57Z" fill="#263238"/>
<path d="M546.061 1096.57C543.207 1100.26 539.453 1103.14 535.162 1104.96C532.789 1105.88 530.189 1106.03 527.725 1105.4C522.361 1103.96 522.263 1099.04 523.263 1094.84C523.819 1092.61 524.638 1090.45 525.701 1088.4C531.443 1093.23 538.577 1096.09 546.061 1096.57Z" fill="#263238"/>
<path d="M535.162 1104.96C532.789 1105.88 530.189 1106.03 527.725 1105.4C522.361 1103.96 522.263 1099.04 523.263 1094.84C529.017 1095.45 534.674 1099.38 535.162 1104.96Z" fill="#FF9BBC"/>
<path d="M586.341 982.897C583.415 974.485 579.513 972.778 579.513 972.778C579.513 972.778 579.513 962.903 570.687 950.249C561.373 937.009 551.181 935.278 551.181 935.278C551.181 935.278 542.744 925.719 523.433 922.086C518.995 921.257 505.56 921.038 501.488 922.72C496.612 924.647 491.735 922.111 486.639 922.013C482.003 921.927 477.401 922.816 473.131 924.622C469.516 926.123 466.171 928.207 463.232 930.791C461.501 932.377 459.872 934.071 458.355 935.863C456.113 938.405 453.112 940.158 449.797 940.861C445.955 942.054 442.41 944.049 439.396 946.714C436.383 949.379 433.969 952.653 432.314 956.32C430.189 960.91 429.043 965.892 428.949 970.95C428.706 977.265 422.098 980.215 419.611 985.579C417.728 989.847 417.145 994.574 417.934 999.171C418.723 1003.77 420.85 1008.03 424.048 1011.43C415.807 1017.33 412.735 1030.52 417.148 1040.93C420.562 1048.97 427.706 1052.56 434.923 1054.53C436.254 1054.9 437.618 1055.12 438.995 1055.19C453.771 1057.63 468.255 1041.39 463.012 1023.84V1023.69C471.117 1021.16 478.211 1016.12 483.274 1009.3C488.882 1001.99 490.711 992.236 490.784 982.483C509.34 994.186 535.064 982.653 538.355 958.831C543.646 964.634 558.812 974.436 565.81 972.242C568.834 993.65 582.878 1001.5 586.584 1001.5C587.072 1001.65 589.657 992.504 586.341 982.897ZM453.771 1048.97C458.062 1044.51 461.305 1038.2 462.842 1024.81C463.795 1029.28 463.448 1033.94 461.841 1038.22C460.233 1042.5 457.433 1046.23 453.771 1048.97ZM512.29 983.677C517.966 981.905 523.13 978.79 527.345 974.596C531.56 970.403 534.701 965.254 536.502 959.587C533.186 974.168 523.726 981.8 512.363 983.677H512.29Z" fill="#0D0D2B"/>
<path d="M516.118 1077.33C511.074 1076.73 506.301 1074.71 502.343 1071.53C498.385 1068.34 495.402 1064.11 493.732 1059.31C492.063 1054.51 491.774 1049.34 492.899 1044.38C494.025 1039.43 496.518 1034.89 500.097 1031.28C503.676 1027.67 508.195 1025.14 513.141 1023.98C518.087 1022.81 523.261 1023.06 528.074 1024.69C532.886 1026.32 537.144 1029.27 540.363 1033.2C543.582 1037.13 545.632 1041.89 546.28 1046.93C546.807 1051.03 546.392 1055.19 545.066 1059.1C543.74 1063.01 541.539 1066.57 538.63 1069.5C535.721 1072.44 532.181 1074.67 528.28 1076.02C524.379 1077.38 520.219 1077.83 516.118 1077.33ZM522.239 1027.08C520.296 1026.83 518.329 1026.83 516.387 1027.08C510.46 1027.83 505.039 1030.8 501.229 1035.4C497.418 1040 495.505 1045.88 495.878 1051.84C496.251 1057.81 498.882 1063.4 503.236 1067.49C507.59 1071.58 513.339 1073.86 519.313 1073.86C525.286 1073.86 531.036 1071.58 535.389 1067.49C539.743 1063.4 542.375 1057.81 542.748 1051.84C543.12 1045.88 541.207 1040 537.397 1035.4C533.586 1030.8 528.166 1027.83 522.239 1027.08Z" fill="#BB0163"/>
<path d="M578.295 1077.28C567.981 1076.02 559.934 1064.34 559.983 1050.17C559.895 1043.4 561.924 1036.78 565.786 1031.22C567.294 1028.74 569.418 1026.68 571.953 1025.25C574.488 1023.82 577.348 1023.07 580.258 1023.07C583.167 1023.07 586.027 1023.82 588.562 1025.25C591.097 1026.68 593.221 1028.74 594.729 1031.22C598.552 1036.81 600.523 1043.45 600.361 1050.22C600.361 1065.16 591.193 1077.31 580.075 1077.26C579.514 1077.38 578.88 1077.33 578.295 1077.28ZM581.66 1026.84C581.197 1026.81 580.733 1026.81 580.27 1026.84C577.955 1026.93 575.697 1027.58 573.685 1028.73C571.674 1029.88 569.968 1031.5 568.712 1033.44C565.3 1038.38 563.518 1044.26 563.616 1050.27C563.616 1063.21 570.931 1073.8 580.075 1073.82C589.218 1073.85 596.679 1063.36 596.753 1050.41C596.927 1044.42 595.222 1038.52 591.876 1033.54C590.742 1031.77 589.245 1030.25 587.484 1029.1C585.724 1027.94 583.739 1027.17 581.66 1026.84Z" fill="#BB0163"/>
<path d="M545.378 1050.07L542.939 1047.29C547.085 1043.85 556.618 1039.25 563.202 1046.37L560.544 1048.8C554.668 1042.44 545.67 1049.76 545.378 1050.07Z" fill="#BB0163"/>
<path d="M424.39 1056.54L421.196 1054.85C421.977 1053.37 429.072 1040.22 437.167 1038.91C444.75 1037.74 493.248 1042.49 495.418 1042.69L495.052 1046.29C481.129 1044.93 443.604 1041.56 437.752 1042.49C432.388 1043.32 426.292 1052.93 424.39 1056.54Z" fill="#BB0163"/>
<path d="M452.553 1055.53C452.553 1055.53 433.534 1021.79 418.417 1028.27C403.299 1034.76 415.466 1082.14 431.681 1090.04C433.69 1091.19 435.912 1091.93 438.213 1092.21C440.515 1092.48 442.849 1092.29 445.074 1091.64C447.3 1090.99 449.371 1089.9 451.163 1088.43C452.955 1086.96 454.431 1085.14 455.503 1083.09L452.553 1055.53Z" fill="#FFBE9D"/>
<path d="M422.269 1041.78C422.218 1041.78 422.168 1041.8 422.127 1041.83C422.085 1041.86 422.054 1041.9 422.038 1041.95C422.022 1042 422.021 1042.05 422.036 1042.1C422.052 1042.15 422.082 1042.19 422.123 1042.22C433.461 1048.15 438.606 1059.68 441.849 1071.48C438.776 1066.78 434.217 1063.9 427.975 1067.51C427.633 1067.7 427.975 1068.22 428.219 1068.17C430.366 1067.72 432.6 1067.95 434.612 1068.82C436.625 1069.7 438.318 1071.17 439.459 1073.04C441.359 1076.17 442.913 1079.5 444.092 1082.97C444.531 1084.06 446.53 1083.7 446.213 1082.43V1082.16C447.847 1067.14 438.264 1044.86 422.269 1041.78Z" fill="#263238"/>
</svg>
